<svg xmlns="http://www.w3.org/2000/svg" width="18" height="18" viewBox="0 0 18 18">
  <g id="Graph_node_dark" transform="translate(-124 -311)">
    <g id="Path_5413" data-name="Path 5413" transform="translate(124 312)" fill="#1e2931">
      <path d="M 10.80983448028564 15 L 1.000004291534424 15 L 1.000004291534424 5 C 1.000004291534424 2.794389963150024 2.755614280700684 1 4.913554191589355 1 L 14.72338390350342 1 L 14.72338390350342 11 C 14.72338390350342 13.20561027526855 12.96777439117432 15 10.80983448028564 15 Z" stroke="none"/>
      <path d="M 4.913554191589355 2 C 3.307014465332031 2 2.000004768371582 3.345789909362793 2.000004768371582 5 L 2.000004768371582 14 L 10.80983448028564 14 C 12.41637420654297 14 13.72338485717773 12.65421009063721 13.72338485717773 11 L 13.72338485717773 2 L 4.913554191589355 2 M 4.913554191589355 0 L 15.72338390350342 0 L 15.72338390350342 11 C 15.72338390350342 13.76142024993896 13.52351379394531 16 10.80983448028564 16 L 4.76837158203125e-06 16 L 4.76837158203125e-06 5 C 4.76837158203125e-06 2.238579750061035 2.199873924255371 0 4.913554191589355 0 Z" stroke="none" fill="#37916a"/>
    </g>
    <rect id="Rectangle_1446" data-name="Rectangle 1446" width="13" height="4" transform="translate(126 313)" fill="#37916a"/>
    <circle id="Ellipse_237" data-name="Ellipse 237" cx="2" cy="2" r="2" transform="translate(124 319)" fill="#37916a"/>
    <g id="Ellipse_238" data-name="Ellipse 238" transform="translate(135.7 318)" fill="#1e2931" stroke="#37916a" stroke-width="1">
      <circle cx="3" cy="3" r="3" stroke="none"/>
      <circle cx="3" cy="3" r="2.5" fill="none"/>
    </g>
    <path id="Icon_Base" d="M0,0H18V18H0Z" transform="translate(124 311)" fill="none"/>
  </g>
</svg>
