<svg xmlns="http://www.w3.org/2000/svg" width="40" height="40" viewBox="0 0 40 40">
  <g id="Collision_Automatic_Creation" data-name="Collision Automatic Creation" transform="translate(-3304.804 2934.985)">
    <path id="Subtraction_22" data-name="Subtraction 22" d="M27.753,18.5,25.231,17.02a11.764,11.764,0,0,0,0-4.222l2.522-1.479a.732.732,0,0,0,.326-.842A15.036,15.036,0,0,0,24.84,4.787a.7.7,0,0,0-.876-.138L21.442,6.128a11.132,11.132,0,0,0-3.6-2.111V1.065a.718.718,0,0,0-.557-.7,14.657,14.657,0,0,0-6.465,0,.718.718,0,0,0-.556.7V4.023a11.484,11.484,0,0,0-3.6,2.111L4.148,4.655a.7.7,0,0,0-.876.138A14.945,14.945,0,0,0,.034,10.482a.724.724,0,0,0,.326.842L2.881,12.8a11.764,11.764,0,0,0,0,4.222L.359,18.5a.732.732,0,0,0-.326.842,15.035,15.035,0,0,0,3.238,5.689.7.7,0,0,0,.876.138L6.67,23.7a11.132,11.132,0,0,0,3.6,2.111v2.959a.718.718,0,0,0,.557.7,14.657,14.657,0,0,0,6.465,0,.718.718,0,0,0,.556-.7V25.806a11.483,11.483,0,0,0,3.6-2.111l2.522,1.479a.7.7,0,0,0,.876-.138,14.945,14.945,0,0,0,3.238-5.689A.748.748,0,0,0,27.753,18.5Zm-13.7,1.221a4.812,4.812,0,1,1,4.736-4.811A4.78,4.78,0,0,1,14.053,19.72Z" transform="translate(3310.835 -2930.016)" fill="#806060" stroke="#cc9393" stroke-width="1"/>
    <g id="select" transform="translate(3304.804 -2934.985)">
      <rect id="Rectangle_678" data-name="Rectangle 678" width="40" height="40" transform="translate(0 0)" fill="none"/>
    </g>
  </g>
</svg>
