<svg xmlns="http://www.w3.org/2000/svg" width="40" height="40" viewBox="0 0 40 40">
  <g id="Collision_Automatic_Creation" data-name="Collision Automatic Creation" transform="translate(-3304.804 2934.985)">
    <path id="Subtraction_22" data-name="Subtraction 22" d="M1.646,22.884h0A15.048,15.048,0,0,1,.033,19.347.732.732,0,0,1,.359,18.5l2.523-1.48a11.717,11.717,0,0,1,0-4.222L.359,11.325a.723.723,0,0,1-.326-.842A15.048,15.048,0,0,1,3.272,4.793a.7.7,0,0,1,.52-.235.71.71,0,0,1,.356.1l2.516,1.48a11.433,11.433,0,0,1,3.6-2.11V1.065a.721.721,0,0,1,.557-.7,14.658,14.658,0,0,1,6.465,0,.721.721,0,0,1,.556.7V4.018a11.085,11.085,0,0,1,3.6,2.11l2.522-1.48a.686.686,0,0,1,.349-.1.716.716,0,0,1,.527.234A15.052,15.052,0,0,1,27.058,7.98L18.42,13.046A4.731,4.731,0,0,0,14.053,10.1a4.824,4.824,0,0,0-3.769,7.721L1.647,22.883Z" transform="translate(3310.835 -2930.016)" fill="#806060" stroke="#cc9393" stroke-width="1"/>
    <path id="Subtraction_23" data-name="Subtraction 23" d="M1.672,22.884h0A14.935,14.935,0,0,1,.034,19.347a.726.726,0,0,1,.331-.842l2.562-1.48a11.52,11.52,0,0,1,0-4.222L.365,11.324a.715.715,0,0,1-.331-.842,15,15,0,0,1,3.29-5.689.715.715,0,0,1,.528-.235.73.73,0,0,1,.362.1L6.77,6.135a11.684,11.684,0,0,1,3.656-2.112V1.065a.724.724,0,0,1,.565-.7,15.132,15.132,0,0,1,6.567,0,.724.724,0,0,1,.566.7V4.018A11.293,11.293,0,0,1,21.78,6.128l2.562-1.48a.706.706,0,0,1,.355-.1.73.73,0,0,1,.535.234A15.045,15.045,0,0,1,27.486,7.98l-8.775,5.066a4.81,4.81,0,1,0-8.265,4.772L1.673,22.884Z" transform="translate(3339.386 -2899.955) rotate(180)" fill="#627d5c" stroke="#63be72" stroke-width="1"/>
    <line id="Line_899" data-name="Line 899" y1="18.356" x2="30.549" transform="translate(3309.529 -2924.163)" fill="none" stroke="#2d2d2d" stroke-linecap="round" stroke-width="2"/>
    <g id="select" transform="translate(3304.804 -2934.985)">
      <rect id="Rectangle_678" data-name="Rectangle 678" width="40" height="40" transform="translate(0 0)" fill="none"/>
    </g>
  </g>
</svg>
