<svg width="41" height="40" viewBox="0 0 41 40" fill="none" xmlns="http://www.w3.org/2000/svg">
<path d="M17.8162 9.77727C17.8162 12.0167 19.4053 13.8925 21.4352 13.8925C22.2684 13.8925 23.0328 13.5725 23.6403 13.0413C24.5048 12.2852 25.0542 11.1002 25.0542 9.77727C25.0542 7.53788 23.4651 5.66208 21.4352 5.66208C19.4053 5.66208 17.8162 7.53788 17.8162 9.77727Z" stroke="black" stroke-width="0.5"/>
<path d="M19.5745 9.85839C19.5745 11.044 20.3754 12.0906 21.4593 12.0906C21.9019 12.0906 22.304 11.9106 22.619 11.6194C23.0664 11.2059 23.344 10.5653 23.344 9.85839C23.344 8.67282 22.5431 7.62619 21.4593 7.62619C20.3754 7.62619 19.5745 8.67282 19.5745 9.85839Z" stroke="black" stroke-width="0.5"/>
<path d="M28.8162 13.9446L28.7444 13.5711L28.3653 13.5406L18.882 12.7767L18.7975 12.7699L18.7155 12.7913L12.9398 14.3005L12.6383 14.3792L12.5762 14.6846L9.24123 31.08L9.14115 31.5721L9.63362 31.6701L24.2405 34.5765L24.4465 34.6175L24.62 34.4991L31.5508 29.7668L31.8218 29.5817L31.7599 29.2595L28.8162 13.9446Z" stroke="black"/>
<path d="M28.3439 14.0283L23.6025 15.8519L24.3319 34.0879L31.2616 29.3465L28.3439 14.0283Z" fill="#313131"/>
<path d="M9.74304 31.1701L13.0255 14.7577L23.6024 15.8518L24.3319 34.0879L9.74304 31.1701Z" fill="#505050"/>
<path d="M18.8611 13.2988L28.3439 14.0282L23.6025 15.8518L13.0256 14.7577L18.8611 13.2988Z" fill="#7D7D7D"/>
<g style="mix-blend-mode:overlay">
<path d="M28.3326 14.0274L28.4194 14.5099L23.9586 16.1951L24.6939 33.8969L24.3399 34.0782L23.9536 34.0345L23.205 16.3059L12.9556 15.2733L13.0119 14.7541L13.5919 14.5962L23.5382 15.5607L27.8857 13.9908L28.3326 14.0274Z" fill="#D3D3D3"/>
<g style="mix-blend-mode:darken">
<path d="M18.9667 13.4067L28.213 14.1244" stroke="#B2B0B0" stroke-width="0.25" stroke-linecap="square"/>
</g>
<g style="mix-blend-mode:darken">
<path d="M13.2218 14.813L18.9118 13.3905" stroke="#B6B4B4" stroke-width="0.25" stroke-linecap="square"/>
</g>
<g style="mix-blend-mode:darken">
<path d="M28.1677 14.244L31.0354 29.2902" stroke="#A2A2A2" stroke-width="0.5" stroke-linecap="square"/>
</g>
<path d="M9.96295 31.0231L24.3173 33.8681L31.1129 29.1932" stroke="#A2A2A2" stroke-width="0.5" stroke-linecap="round"/>
<path d="M13.2024 14.9294L9.98236 31.0037" stroke="white" stroke-width="0.5" stroke-linecap="round"/>
</g>
<path d="M21.8581 12.7219C21.9235 13.1802 22.3658 13.4988 22.7803 13.2925C23.2761 13.0458 23.7166 12.6642 24.0606 12.1752C24.5814 11.4352 24.8444 10.5013 24.7992 9.55301C24.754 8.60475 24.4038 7.70902 23.8158 7.03796C23.2279 6.3669 22.4436 5.96785 21.6138 5.9175C20.784 5.86714 19.9672 6.16904 19.3204 6.76516C18.6735 7.36129 18.2423 8.20959 18.1095 9.14706C17.9767 10.0845 18.1517 11.045 18.6009 11.8439C18.8963 12.3692 19.2965 12.8004 19.7638 13.1055C20.1557 13.3614 20.636 13.089 20.7453 12.6339C20.8446 12.2207 20.5901 11.8101 20.2681 11.5329C20.0863 11.3764 19.9286 11.1832 19.8035 10.9608C19.5449 10.5008 19.4441 9.94785 19.5205 9.40814C19.597 8.86843 19.8453 8.38005 20.2177 8.03685C20.5901 7.69366 21.0603 7.51985 21.538 7.54884C22.0158 7.57783 22.4673 7.80757 22.8058 8.19391C23.1443 8.58025 23.3459 9.09593 23.3719 9.64185C23.3979 10.1878 23.2465 10.7254 22.9467 11.1515C22.8084 11.348 22.6431 11.5144 22.4588 11.6453C22.1034 11.8976 21.7964 12.2904 21.8581 12.7219Z" fill="#A3A3A3"/>
<path d="M23.45 9.71406C23.45 10.3069 23.2402 10.8779 22.8631 11.3009C22.4855 11.7244 21.9702 11.9656 21.4294 11.9656C20.8885 11.9656 20.3732 11.7244 19.9957 11.3009C19.6185 10.8779 19.4088 10.3069 19.4088 9.71406" stroke="#C1C1C1" stroke-width="0.25"/>
<path d="M23.575 9.71406C23.575 9.09245 23.3551 8.49133 22.9564 8.04402C22.5568 7.59577 22.0083 7.33752 21.4294 7.33752C20.8504 7.33752 20.3019 7.59577 19.9023 8.04402C19.5036 8.49133 19.2838 9.09245 19.2838 9.71406" stroke="#888888" stroke-width="0.5" stroke-linecap="round"/>
<path d="M24.6913 9.69481C24.6913 10.2132 24.6072 10.7266 24.4438 11.2055C24.2803 11.6845 24.0408 12.1197 23.7388 12.4862C23.4367 12.8528 23.0782 13.1436 22.6836 13.342C22.289 13.5404 21.8661 13.6425 21.439 13.6425C21.0119 13.6425 20.589 13.5404 20.1944 13.342C19.7998 13.1436 19.4412 12.8528 19.1392 12.4862C18.8372 12.1197 18.5977 11.6845 18.4342 11.2055C18.2708 10.7266 18.1866 10.2132 18.1866 9.69481" stroke="#666666" stroke-width="0.25" stroke-linecap="round"/>
<path d="M24.6913 9.69481C24.6913 9.20948 24.6072 8.72891 24.4438 8.28052C24.2803 7.83214 24.0408 7.42473 23.7388 7.08155C23.4367 6.73837 23.0782 6.46615 22.6836 6.28042C22.289 6.09469 21.8661 5.9991 21.439 5.9991C21.0119 5.9991 20.589 6.09469 20.1944 6.28042C19.7998 6.46615 19.4412 6.73837 19.1392 7.08155C18.8372 7.42473 18.5977 7.83214 18.4342 8.28052C18.2708 8.72891 18.1866 9.20948 18.1866 9.69481" stroke="#C1C1C1" stroke-width="0.25" stroke-linecap="round"/>
<path d="M20.1163 14.094V12.6501C20.1163 12.5232 20.1749 12.3163 20.365 12.1402C20.5533 11.966 20.8812 11.8126 21.4352 11.8126C21.9892 11.8126 22.3171 11.966 22.5054 12.1402C22.6955 12.3163 22.7541 12.5232 22.7541 12.6501V14.094C22.7541 14.1009 22.738 14.1887 22.5378 14.2814C22.3441 14.371 22.0034 14.4503 21.4352 14.4503C20.867 14.4503 20.5263 14.371 20.3326 14.2814C20.1324 14.1887 20.1163 14.1009 20.1163 14.094Z" fill="#A3A3A3" stroke="#525252" stroke-width="0.25" stroke-linecap="round"/>
<ellipse cx="21.4294" cy="12.5284" rx="1.14286" ry="0.583604" fill="#C7C7C7"/>
</svg>
