<svg xmlns="http://www.w3.org/2000/svg" width="40.007" height="39.998" viewBox="0 0 40.007 39.998">
  <g id="Remove_Physics_Components" data-name="Remove Physics Components" transform="translate(-11360.865 361.421)">
    <g id="Group_1190" data-name="Group 1190" transform="translate(11367.39 -355.725)">
      <g id="Group_842" data-name="Group 842" transform="translate(0 0)">
        <g id="Path_2199" data-name="Path 2199" transform="translate(0.003 6.387)" fill="none">
          <path d="M0,0,13.473,6.373V22.219L0,15.846Z" stroke="none"/>
          <path d="M 0.999995231628418 1.57927131652832 L 0.999995231628418 15.21303462982178 L 12.47266483306885 20.63997077941895 L 12.47266483306885 7.006207466125488 L 0.999995231628418 1.57927131652832 M -4.76837158203125e-06 1.9073486328125e-06 L 13.47266483306885 6.373001098632812 L 13.47266483306885 22.21924018859863 L -4.76837158203125e-06 15.84624099731445 L -4.76837158203125e-06 1.9073486328125e-06 Z" stroke="none" fill="#9f9f9f"/>
        </g>
        <g id="Path_2200" data-name="Path 2200" transform="translate(13.475 6.387)" fill="none">
          <path d="M13.473,0,0,6.373V22.219l13.473-6.373Z" stroke="none"/>
          <path d="M 12.47266483306885 1.57927131652832 L 0.999995231628418 7.006207466125488 L 0.999995231628418 20.63997077941895 L 12.47266483306885 15.21303462982178 L 12.47266483306885 1.57927131652832 M 13.47266483306885 1.9073486328125e-06 L 13.47266483306885 15.84624099731445 L -4.76837158203125e-06 22.21924018859863 L -4.76837158203125e-06 6.373001098632812 L 13.47266483306885 1.9073486328125e-06 Z" stroke="none" fill="#9f9f9f"/>
        </g>
        <g id="Path_2201" data-name="Path 2201" fill="none">
          <path d="M13.473,0,0,6.4l13.473,6.374L26.948,6.4Z" stroke="none"/>
          <path d="M 13.47270774841309 1.107062339782715 L 2.334550857543945 6.397630214691162 L 13.47270774841309 11.66691780090332 L 24.61273193359375 6.397630214691162 L 13.47270774841309 1.107062339782715 M 13.4726734161377 1.9073486328125e-06 L 26.94760322570801 6.399451732635498 L 13.4726734161377 12.77316188812256 L 3.814697265625e-06 6.399451732635498 L 13.4726734161377 1.9073486328125e-06 Z" stroke="none" fill="#9f9f9f"/>
        </g>
      </g>
    </g>
    <g id="Path_4900" data-name="Path 4900" transform="translate(11147.757 -360.038)" fill="#db6868" fill-rule="evenodd">
      <path d="M 242.1426239013672 35.49250793457031 L 242.0219421386719 35.47683715820312 L 241.8604736328125 35.45587539672852 L 241.8123779296875 35.44962692260742 L 241.7651062011719 35.43875503540039 L 241.5827331542969 35.39681625366211 L 241.4715270996094 35.37124633789062 L 241.3689422607422 35.32128524780273 L 241.2053527832031 35.24160766601562 L 241.0506591796875 35.16625595092773 L 240.9300537109375 35.04354476928711 L 240.8116607666016 34.9230842590332 L 239.5318908691406 33.6453857421875 L 239.4710235595703 33.58462524414062 L 239.4214324951172 33.51437759399414 L 239.32080078125 33.37179565429688 L 239.2937622070312 33.33347702026367 L 239.2704162597656 33.29280471801758 L 239.1885986328125 33.15022659301758 L 239.1388702392578 33.06353759765625 L 239.1072692871094 32.96872711181641 L 239.0464630126953 32.78629684448242 L 239.0135650634766 32.68758773803711 L 239.0016937255859 32.58420562744141 L 238.9807434082031 32.40178680419922 L 238.9677124023438 32.28834533691406 L 238.9805908203125 32.17488479614258 L 239.0015411376953 31.99036598205566 L 239.0155487060547 31.86696624755859 L 239.059326171875 31.75074577331543 L 239.1201324462891 31.58929634094238 L 239.1384124755859 31.54075622558594 L 239.16162109375 31.49435615539551 L 239.2434234619141 31.33080673217773 L 239.2772216796875 31.26325607299805 L 239.3207702636719 31.20153617858887 L 239.4214172363281 31.05894660949707 L 239.4688110351562 30.99179649353027 L 239.5265350341797 30.93328666687012 L 241.5993957519531 28.8321647644043 L 239.5286407470703 26.7457275390625 L 239.47216796875 26.68882751464844 L 239.4254760742188 26.6236457824707 L 239.3248291015625 26.48315620422363 L 239.2787933349609 26.41888618469238 L 239.2434234619141 26.34817695617676 L 239.16162109375 26.18462753295898 L 239.137451171875 26.13632583618164 L 239.1186370849609 26.08570671081543 L 239.0578308105469 25.92215728759766 L 239.0155487060547 25.80838584899902 L 239.0016937255859 25.68779754638672 L 238.9807434082031 25.50536727905273 L 238.9676513671875 25.39127731323242 L 238.9807434082031 25.27718734741211 L 239.0016937255859 25.09476661682129 L 239.0155487060547 24.97417640686035 L 239.0578308105469 24.86040687561035 L 239.1186370849609 24.69685745239258 L 239.1474609375 24.61934661865234 L 239.1885986328125 24.54762649536133 L 239.2704162597656 24.4050464630127 L 239.2794952392578 24.38921737670898 L 239.2891387939453 24.37373733520508 L 239.3897857666016 24.2122859954834 L 239.4503631591797 24.11512756347656 L 239.5313110351562 24.03417587280273 L 240.8145446777344 22.75092697143555 L 240.9360809326172 22.62936592102051 L 241.0508728027344 22.51455688476562 L 241.1960906982422 22.44195747375488 L 241.3596801757812 22.36017608642578 L 241.4714050292969 22.3043270111084 L 241.5934295654297 22.27767753601074 L 241.7758026123047 22.23783683776855 L 241.8177947998047 22.22865676879883 L 241.8604125976562 22.2231273651123 L 242.0218811035156 22.20215606689453 L 242.1426239013672 22.18647575378418 L 242.2636108398438 22.20022583007812 L 242.4481201171875 22.2211971282959 L 242.4987487792969 22.2269458770752 L 242.5485382080078 22.23781585693359 L 242.7309722900391 22.27765655517578 L 242.8530731201172 22.30431747436523 L 242.9648284912109 22.36020660400391 L 243.1284027099609 22.44198608398438 L 243.2735900878906 22.51457595825195 L 243.3883514404297 22.62936592102051 L 243.5099334716797 22.7509765625 L 243.5137786865234 22.75481605529785 L 243.517578125 22.75869750976562 L 245.5493621826172 24.83543395996094 L 247.5793151855469 22.75897598266602 L 247.6109466552734 22.72661590576172 L 247.6453704833984 22.69725608825684 L 247.7879180908203 22.57564735412598 L 247.8806762695312 22.49651718139648 L 247.9897308349609 22.44198608398438 L 248.1532897949219 22.36020660400391 L 248.2528533935547 22.31042671203613 L 248.3609161376953 22.28375625610352 L 248.5223693847656 22.24391746520996 L 248.5849609375 22.22847747802734 L 248.6490173339844 22.2211971282959 L 248.8335266113281 22.20022583007812 L 248.9471130371094 22.18731689453125 L 249.0606536865234 22.20036697387695 L 249.2430725097656 22.22133636474609 L 249.3049926757812 22.22845649719238 L 249.3655395507812 22.24320602416992 L 249.5290985107422 22.28304672241211 L 249.6669616699219 22.31662750244141 L 249.7900543212891 22.38723754882812 L 249.9326019287109 22.46901702880859 L 249.9867706298828 22.50009727478027 L 250.0366363525391 22.53765678405762 L 250.1980895996094 22.65926742553711 L 250.2573394775391 22.70389747619629 L 250.3093414306641 22.75676727294922 L 251.5716247558594 24.04001617431641 L 251.6178131103516 24.08696746826172 L 251.6574249267578 24.13955688476562 L 251.779052734375 24.30100631713867 L 251.8523559570312 24.39830589294434 L 251.9001617431641 24.51036643981934 L 251.9609832763672 24.65294647216797 L 251.9932861328125 24.72868728637695 L 252.0127716064453 24.80868721008301 L 252.0525970458984 24.97223663330078 L 252.0673522949219 25.03281593322754 L 252.074462890625 25.09476661682129 L 252.0954132080078 25.27718734741211 L 252.1085205078125 25.39127731323242 L 252.0954132080078 25.50536727905273 L 252.074462890625 25.68779754638672 L 252.0673522949219 25.74974632263184 L 252.0525970458984 25.81032752990723 L 252.0127716064453 25.973876953125 L 251.9989013671875 26.03084754943848 L 251.9784545898438 26.08580589294434 L 251.9176330566406 26.24935722351074 L 251.8546600341797 26.41872596740723 L 251.7363739013672 26.55534744262695 L 251.61474609375 26.69583702087402 L 251.5924682617188 26.72156715393066 L 251.5684814453125 26.7457275390625 L 249.4977416992188 28.8321647644043 L 251.5706024169922 30.93328666687012 L 251.5960235595703 30.95906639099121 L 251.6195220947266 30.98661613464355 L 251.7411499023438 31.12920570373535 L 251.8559722900391 31.26379585266113 L 251.9176330566406 31.42962646484375 L 251.9784545898438 31.59317588806152 L 251.9983825683594 31.64672660827637 L 252.0120544433594 31.70220756530762 L 252.0518798828125 31.86365699768066 L 252.0673370361328 31.92627716064453 L 252.0746154785156 31.99036598205566 L 252.0955657958984 32.17488479614258 L 252.1084442138672 32.28834533691406 L 252.0954132080078 32.40178680419922 L 252.074462890625 32.58420562744141 L 252.0687255859375 32.63423538208008 L 252.0579833984375 32.68342590332031 L 252.0181579589844 32.8658561706543 L 251.9980163574219 32.95807647705078 L 251.9609832763672 33.04490661621094 L 251.9001617431641 33.18748474121094 L 251.8402404785156 33.32794570922852 L 251.7411346435547 33.44412612915039 L 251.6195068359375 33.58670806884766 L 251.5962219238281 33.61399841308594 L 251.5710601806641 33.63954544067383 L 250.3087768554688 34.92070770263672 L 250.2599182128906 34.97029495239258 L 250.2046508789062 35.01263809204102 L 250.043212890625 35.13634490966797 L 249.9859008789062 35.18024826049805 L 249.9228973388672 35.2154655456543 L 249.7803497314453 35.29514694213867 L 249.6668090820312 35.35860824584961 L 249.5408172607422 35.39091491699219 L 249.3772583007812 35.43285751342773 L 249.3109893798828 35.44984817504883 L 249.2430267333984 35.45765686035156 L 249.0606079101562 35.47861480712891 L 248.9471130371094 35.49166488647461 L 248.8335876464844 35.47876739501953 L 248.6490783691406 35.45780563354492 L 248.5788879394531 35.44983673095703 L 248.5105133056641 35.43207550048828 L 248.3490600585938 35.39013671875 L 248.2523651123047 35.36501693725586 L 248.1625366210938 35.32125473022461 L 247.9989776611328 35.2415771484375 L 247.8807983398438 35.18399810791016 L 247.7815093994141 35.09782791137695 L 247.6389617919922 34.97411727905273 L 247.6093902587891 34.9484748840332 L 247.5819396972656 34.92059707641602 L 245.5493621826172 32.85697937011719 L 243.5149536132812 34.92086791992188 L 243.3943786621094 35.04354476928711 L 243.2737884521484 35.16623687744141 L 243.119140625 35.2415771484375 L 242.9555816650391 35.32125473022461 L 242.8529357910156 35.37125778198242 L 242.7416687011719 35.39683532714844 L 242.5592193603516 35.43877792358398 L 242.5041809082031 35.4514274597168 L 242.4480590820312 35.45780563354492 L 242.2635498046875 35.47876739501953 L 242.1426239013672 35.49250793457031 Z" stroke="none"/>
      <path d="M 248.9464569091797 34.48515701293945 L 249.1288757324219 34.46419525146484 L 249.2924346923828 34.42225646972656 L 249.4349822998047 34.34257507324219 L 249.596435546875 34.21886825561523 L 250.8587188720703 32.93770599365234 L 250.9803466796875 32.79512786865234 L 251.0411682128906 32.65254592895508 L 251.0809936523438 32.47011566162109 L 251.1019439697266 32.28769683837891 L 251.0809936523438 32.10317611694336 L 251.0411682128906 31.94172668457031 L 250.9803466796875 31.77817726135254 L 250.8587188720703 31.63558578491211 L 248.0909271240234 28.83005714416504 L 250.8587188720703 26.04129600524902 L 250.9803466796875 25.90080642700195 L 251.0411682128906 25.73725700378418 L 251.0809936523438 25.57370567321777 L 251.1019439697266 25.39127731323242 L 251.0809936523438 25.2088565826416 L 251.0411682128906 25.04530715942383 L 250.9803466796875 24.9027271270752 L 250.8587188720703 24.74127578735352 L 249.596435546875 23.45802688598633 L 249.4349822998047 23.33641624450684 L 249.2924346923828 23.25463676452637 L 249.1288757324219 23.21479606628418 L 248.9464569091797 23.19382667541504 L 248.7619476318359 23.21479606628418 L 248.6004943847656 23.25463676452637 L 248.4369354248047 23.33641624450684 L 248.2943878173828 23.45802688598633 L 245.5496368408203 26.26565742492676 L 242.6811828613281 23.33641624450684 L 242.5176239013672 23.25463676452637 L 242.3351898193359 23.21479606628418 L 242.1506805419922 23.19382667541504 L 241.9892120361328 23.21479606628418 L 241.8068389892578 23.25463676452637 L 241.6432495117188 23.33641624450684 L 240.2384185791016 24.74127578735352 L 240.1377716064453 24.9027271270752 L 240.0559692382812 25.04530715942383 L 239.9951629638672 25.2088565826416 L 239.9742126464844 25.39127731323242 L 239.9951629638672 25.57370567321777 L 240.0559692382812 25.73725700378418 L 240.1377716064453 25.90080642700195 L 240.2384185791016 26.04129600524902 L 243.0062103271484 28.83005714416504 L 240.2384185791016 31.63558578491211 L 240.1377716064453 31.77817726135254 L 240.0559692382812 31.94172668457031 L 239.9951629638672 32.10317611694336 L 239.9742126464844 32.28769683837891 L 239.9951629638672 32.47011566162109 L 240.0559692382812 32.65254592895508 L 240.1377716064453 32.79512786865234 L 240.2384185791016 32.93770599365234 L 241.6432495117188 34.34257507324219 L 241.8068389892578 34.42225646972656 L 241.9892120361328 34.46419525146484 L 242.1506805419922 34.48515701293945 L 242.3351898193359 34.46419525146484 L 242.5176239013672 34.42225646972656 L 242.6811828613281 34.34257507324219 L 242.8027801513672 34.21886825561523 L 245.5496368408203 31.43219566345215 L 248.2943878173828 34.21886825561523 L 248.4369354248047 34.34257507324219 L 248.6004943847656 34.42225646972656 L 248.7619476318359 34.46419525146484 L 248.9464569091797 34.48515701293945 M 242.1345825195312 36.49984741210938 L 241.6355285644531 36.43506622314453 L 241.1362152099609 36.32023620605469 L 240.4580841064453 35.98994827270508 L 240.1021728515625 35.62783050537109 L 238.7036285400391 34.23154830932617 L 238.4497222900391 33.8718376159668 L 238.2217712402344 33.47453689575195 L 238.0319671630859 32.90504837036133 L 237.9612121582031 32.28899765014648 L 238.0359497070312 31.63076591491699 L 238.2208404541016 31.13978576660156 L 238.4166564941406 30.74832725524902 L 238.6992034912109 30.34800720214844 L 240.1925811767578 28.83427619934082 L 238.7059173583984 27.33634567260742 L 238.4198150634766 26.93695640563965 L 238.2189483642578 26.53539657592773 L 238.0359191894531 26.04306602478027 L 237.9610595703125 25.39126586914062 L 238.0359191894531 24.7394962310791 L 238.2389373779297 24.19338607788086 L 238.4405212402344 23.84474754333496 L 238.6622924804688 23.48897743225098 L 240.4585113525391 21.69269752502441 L 241.1359710693359 21.35401725769043 L 241.6463775634766 21.24252700805664 L 242.1345672607422 21.17911720275879 L 242.6623077392578 21.23909568786621 L 243.1885070800781 21.35400581359863 L 243.8659820556641 21.69274711608887 L 244.2323760986328 22.05936622619629 L 245.5490875244141 23.40520668029785 L 246.9275054931641 21.99520683288574 L 247.3244018554688 21.6566162109375 L 247.9051971435547 21.3662166595459 L 248.4079742431641 21.24214744567871 L 248.9477386474609 21.18080711364746 L 249.4811096191406 21.24211692810059 L 250.04150390625 21.37861633300781 L 250.5385437011719 21.66376686096191 L 250.9182281494141 21.94975662231445 L 252.3768920898438 23.43265724182129 L 252.7243804931641 23.89389610290527 L 252.9454040527344 24.41206741333008 L 253.0537109375 24.85677719116211 L 253.1150970458984 25.39126586914062 L 253.0537109375 25.92577743530273 L 252.9566192626953 26.32443618774414 L 252.7289581298828 26.93664741516113 L 252.3262176513672 27.40183639526367 L 250.9045562744141 28.83427619934082 L 252.3333435058594 30.28253746032715 L 252.7315979003906 30.74942588806152 L 252.9555816650391 31.35173606872559 L 253.0536804199219 31.74937629699707 L 253.1149444580078 32.28899765014648 L 253.0564422607422 32.79834747314453 L 252.9548645019531 33.26360702514648 L 252.7001342773438 33.86077499389648 L 252.333740234375 34.29028701782227 L 250.9234008789062 35.72172546386719 L 250.5368194580078 36.01791763305664 L 250.0411834716797 36.29496765136719 L 249.4931030273438 36.43550491333008 L 248.9477386474609 36.49816513061523 L 248.3958282470703 36.43546676635742 L 247.9042358398438 36.30776596069336 L 247.3246459960938 36.02541732788086 L 246.9244232177734 35.67807769775391 L 245.5490875244141 34.2817497253418 L 243.8663940429688 35.98988723754883 L 243.1882629394531 36.32025527954102 L 242.6731719970703 36.43866729736328 L 242.1345825195312 36.49984741210938 Z" stroke="none" fill="#1f2123"/>
    </g>
    <g id="select" transform="translate(11360.865 -361.421)">
      <rect id="Rectangle_678" data-name="Rectangle 678" width="39.998" height="39.998" fill="none"/>
    </g>
  </g>
</svg>
