<svg xmlns="http://www.w3.org/2000/svg" width="40" height="40" viewBox="0 0 40 40">
  <g id="Set_Subcomponents_Dynamic" data-name="Set Subcomponents Dynamic" transform="translate(-3000.44 3054)">
    <g id="Group_2422" data-name="Group 2422" transform="translate(3030.277 -3051.807)">
      <line id="Line_501" data-name="Line 501" x2="7.988" fill="none" stroke="#a1a1a1" stroke-linecap="round" stroke-width="2"/>
      <line id="Line_502" data-name="Line 502" y1="7.988" transform="translate(7.988)" fill="none" stroke="#a1a1a1" stroke-linecap="round" stroke-width="2"/>
    </g>
    <g id="Group_2421" data-name="Group 2421" transform="translate(3010.694 -3016.249) rotate(180)">
      <line id="Line_501-2" data-name="Line 501" x2="7.988" fill="none" stroke="#a1a1a1" stroke-linecap="round" stroke-width="2"/>
      <line id="Line_502-2" data-name="Line 502" y1="7.988" transform="translate(7.988)" fill="none" stroke="#a1a1a1" stroke-linecap="round" stroke-width="2"/>
    </g>
    <g id="Group_2423" data-name="Group 2423" transform="translate(3038.264 -3024.236) rotate(90)">
      <line id="Line_501-3" data-name="Line 501" x2="7.988" fill="none" stroke="#a1a1a1" stroke-linecap="round" stroke-width="2"/>
      <line id="Line_502-3" data-name="Line 502" y1="7.988" transform="translate(7.988)" fill="none" stroke="#a1a1a1" stroke-linecap="round" stroke-width="2"/>
    </g>
    <g id="Group_2419" data-name="Group 2419" transform="translate(3002.706 -3043.819) rotate(-90)">
      <line id="Line_501-4" data-name="Line 501" x2="7.988" fill="none" stroke="#a1a1a1" stroke-linecap="round" stroke-width="2"/>
      <line id="Line_502-4" data-name="Line 502" y1="7.988" transform="translate(7.988)" fill="none" stroke="#a1a1a1" stroke-linecap="round" stroke-width="2"/>
    </g>
    <rect id="Rectangle_1076" data-name="Rectangle 1076" width="40" height="40" transform="translate(3000.44 -3054)" fill="none"/>
    <g id="Group_3780" data-name="Group 3780" transform="translate(3006.39 -3044.544)">
      <g id="Path_2202" data-name="Path 2202" transform="translate(0.114 0.109)" fill="none">
        <path d="M0,2.658,5.492,0l5.56,2.658V9.08l-5.56,2.569L0,9.08Z" stroke="none"/>
        <path d="M 5.491962432861328 -4.76837158203125e-06 L 1.9073486328125e-06 2.657515525817871 L 1.9073486328125e-06 9.079825401306152 L 5.491962432861328 11.6486759185791 L 11.05176258087158 9.079825401306152 L 11.05176258087158 2.657515525817871 L 5.491962432861328 -4.76837158203125e-06 M 5.489302158355713 -1.109644889831543 L 12.05176258087158 2.027135848999023 L 12.05176258087158 9.719366073608398 L 5.489372253417969 12.75145530700684 L -0.9999980926513672 9.716065406799316 L -0.9999980926513672 2.030485153198242 L 5.489302158355713 -1.109644889831543 Z" stroke="none" fill="#2d2d2d"/>
      </g>
      <g id="Group_842" data-name="Group 842" transform="translate(0 0)">
        <g id="Path_2199" data-name="Path 2199" transform="translate(0 2.672)" fill="#556054">
          <path d="M 5.376139163970947 8.883862495422363 L 0.2499991059303284 6.459029197692871 L 0.2499991059303284 0.3948135077953339 L 5.376139163970947 2.819647073745728 L 5.376139163970947 8.883862495422363 Z" stroke="none"/>
          <path d="M 0.4999990463256836 0.7896289825439453 L 0.4999990463256836 6.300729751586914 L 5.126139163970947 8.489047050476074 L 5.126139163970947 2.977945804595947 L 0.4999990463256836 0.7896289825439453 M -9.5367431640625e-07 -1.9073486328125e-06 L 5.626139163970947 2.66134786605835 L 5.626139163970947 9.278677940368652 L -9.5367431640625e-07 6.617327690124512 L -9.5367431640625e-07 -1.9073486328125e-06 Z" stroke="none" fill="#63be72"/>
        </g>
        <g id="Path_2200" data-name="Path 2200" transform="translate(5.626 2.672)" fill="#607d65">
          <path d="M 0.2499991059303284 8.883862495422363 L 0.2499991059303284 2.819647073745728 L 5.376139163970947 0.3948135077953339 L 5.376139163970947 6.459029197692871 L 0.2499991059303284 8.883862495422363 Z" stroke="none"/>
          <path d="M 5.126139163970947 0.7896289825439453 L 0.4999990463256836 2.977945804595947 L 0.4999990463256836 8.489047050476074 L 5.126139163970947 6.300729751586914 L 5.126139163970947 0.7896289825439453 M 5.626139163970947 -1.9073486328125e-06 L 5.626139163970947 6.617327690124512 L -9.5367431640625e-07 9.278677940368652 L -9.5367431640625e-07 2.66134786605835 L 5.626139163970947 -1.9073486328125e-06 Z" stroke="none" fill="#63be72"/>
        </g>
        <g id="Path_2201" data-name="Path 2201" transform="translate(0 0)" fill="#627d5c">
          <path d="M 5.626156330108643 5.057462692260742 L 0.5836411118507385 2.671935319900513 L 5.626145839691162 0.2767695188522339 L 10.6695032119751 2.671940326690674 L 5.626156330108643 5.057462692260742 Z" stroke="none"/>
          <path d="M 5.626164436340332 0.5535330772399902 L 1.167274475097656 2.67148494720459 L 5.626153945922852 4.780904293060303 L 10.08578872680664 2.671479940414429 L 5.626164436340332 0.5535330772399902 M 5.626142024993896 3.337860107421875e-06 L 11.25322246551514 2.672393083572388 L 5.626142024993896 5.334022998809814 L 1.9073486328125e-06 2.672393083572388 L 5.626142024993896 3.337860107421875e-06 Z" stroke="none" fill="#63be72"/>
        </g>
      </g>
    </g>
    <g id="Group_3781" data-name="Group 3781" transform="translate(3023.237 -3044.544)">
      <g id="Path_2202-2" data-name="Path 2202" transform="translate(0.114 0.109)" fill="none">
        <path d="M0,2.658,5.492,0l5.56,2.658V9.08l-5.56,2.569L0,9.08Z" stroke="none"/>
        <path d="M 5.491962432861328 -4.76837158203125e-06 L 1.9073486328125e-06 2.657515525817871 L 1.9073486328125e-06 9.079825401306152 L 5.491962432861328 11.6486759185791 L 11.05176258087158 9.079825401306152 L 11.05176258087158 2.657515525817871 L 5.491962432861328 -4.76837158203125e-06 M 5.489302158355713 -1.109644889831543 L 12.05176258087158 2.027135848999023 L 12.05176258087158 9.719366073608398 L 5.489372253417969 12.75145530700684 L -0.9999980926513672 9.716065406799316 L -0.9999980926513672 2.030485153198242 L 5.489302158355713 -1.109644889831543 Z" stroke="none" fill="#2d2d2d"/>
      </g>
      <g id="Group_842-2" data-name="Group 842" transform="translate(0 0)">
        <g id="Path_2199-2" data-name="Path 2199" transform="translate(0 2.672)" fill="#556054">
          <path d="M 5.376139163970947 8.883862495422363 L 0.2499991059303284 6.459029197692871 L 0.2499991059303284 0.3948135077953339 L 5.376139163970947 2.819647073745728 L 5.376139163970947 8.883862495422363 Z" stroke="none"/>
          <path d="M 0.4999990463256836 0.7896289825439453 L 0.4999990463256836 6.300729751586914 L 5.126139163970947 8.489047050476074 L 5.126139163970947 2.977945804595947 L 0.4999990463256836 0.7896289825439453 M -9.5367431640625e-07 -1.9073486328125e-06 L 5.626139163970947 2.66134786605835 L 5.626139163970947 9.278677940368652 L -9.5367431640625e-07 6.617327690124512 L -9.5367431640625e-07 -1.9073486328125e-06 Z" stroke="none" fill="#63be72"/>
        </g>
        <g id="Path_2200-2" data-name="Path 2200" transform="translate(5.626 2.672)" fill="#607d65">
          <path d="M 0.2499991059303284 8.883862495422363 L 0.2499991059303284 2.819647073745728 L 5.376139163970947 0.3948135077953339 L 5.376139163970947 6.459029197692871 L 0.2499991059303284 8.883862495422363 Z" stroke="none"/>
          <path d="M 5.126139163970947 0.7896289825439453 L 0.4999990463256836 2.977945804595947 L 0.4999990463256836 8.489047050476074 L 5.126139163970947 6.300729751586914 L 5.126139163970947 0.7896289825439453 M 5.626139163970947 -1.9073486328125e-06 L 5.626139163970947 6.617327690124512 L -9.5367431640625e-07 9.278677940368652 L -9.5367431640625e-07 2.66134786605835 L 5.626139163970947 -1.9073486328125e-06 Z" stroke="none" fill="#63be72"/>
        </g>
        <g id="Path_2201-2" data-name="Path 2201" fill="#627d5c">
          <path d="M 5.626156330108643 5.057462692260742 L 0.5836411118507385 2.671935319900513 L 5.626145839691162 0.2767695188522339 L 10.6695032119751 2.671940326690674 L 5.626156330108643 5.057462692260742 Z" stroke="none"/>
          <path d="M 5.626164436340332 0.5535330772399902 L 1.167274475097656 2.67148494720459 L 5.626153945922852 4.780904293060303 L 10.08578872680664 2.671479940414429 L 5.626164436340332 0.5535330772399902 M 5.626142024993896 3.337860107421875e-06 L 11.25322246551514 2.672393083572388 L 5.626142024993896 5.334022998809814 L 1.9073486328125e-06 2.672393083572388 L 5.626142024993896 3.337860107421875e-06 Z" stroke="none" fill="#63be72"/>
        </g>
      </g>
    </g>
    <g id="Group_3782" data-name="Group 3782" transform="translate(3014.814 -3031.281)">
      <g id="Path_2202-3" data-name="Path 2202" transform="translate(0.114 0.109)" fill="none">
        <path d="M0,2.658,5.492,0l5.56,2.658V9.08l-5.56,2.569L0,9.08Z" stroke="none"/>
        <path d="M 5.491962432861328 -4.76837158203125e-06 L 1.9073486328125e-06 2.657515525817871 L 1.9073486328125e-06 9.079825401306152 L 5.491962432861328 11.6486759185791 L 11.05176258087158 9.079825401306152 L 11.05176258087158 2.657515525817871 L 5.491962432861328 -4.76837158203125e-06 M 5.489302158355713 -1.109644889831543 L 12.05176258087158 2.027135848999023 L 12.05176258087158 9.719366073608398 L 5.489372253417969 12.75145530700684 L -0.9999980926513672 9.716065406799316 L -0.9999980926513672 2.030485153198242 L 5.489302158355713 -1.109644889831543 Z" stroke="none" fill="#2d2d2d"/>
      </g>
      <g id="Group_842-3" data-name="Group 842" transform="translate(0 0)">
        <g id="Path_2199-3" data-name="Path 2199" transform="translate(0 2.672)" fill="#556054">
          <path d="M 5.376139163970947 8.883862495422363 L 0.2499991059303284 6.459029197692871 L 0.2499991059303284 0.3948135077953339 L 5.376139163970947 2.819647073745728 L 5.376139163970947 8.883862495422363 Z" stroke="none"/>
          <path d="M 0.4999990463256836 0.7896289825439453 L 0.4999990463256836 6.300729751586914 L 5.126139163970947 8.489047050476074 L 5.126139163970947 2.977945804595947 L 0.4999990463256836 0.7896289825439453 M -9.5367431640625e-07 -1.9073486328125e-06 L 5.626139163970947 2.66134786605835 L 5.626139163970947 9.278677940368652 L -9.5367431640625e-07 6.617327690124512 L -9.5367431640625e-07 -1.9073486328125e-06 Z" stroke="none" fill="#63be72"/>
        </g>
        <g id="Path_2200-3" data-name="Path 2200" transform="translate(5.626 2.672)" fill="#607d65">
          <path d="M 0.2499991059303284 8.883862495422363 L 0.2499991059303284 2.819647073745728 L 5.376139163970947 0.3948135077953339 L 5.376139163970947 6.459029197692871 L 0.2499991059303284 8.883862495422363 Z" stroke="none"/>
          <path d="M 5.126139163970947 0.7896289825439453 L 0.4999990463256836 2.977945804595947 L 0.4999990463256836 8.489047050476074 L 5.126139163970947 6.300729751586914 L 5.126139163970947 0.7896289825439453 M 5.626139163970947 -1.9073486328125e-06 L 5.626139163970947 6.617327690124512 L -9.5367431640625e-07 9.278677940368652 L -9.5367431640625e-07 2.66134786605835 L 5.626139163970947 -1.9073486328125e-06 Z" stroke="none" fill="#63be72"/>
        </g>
        <g id="Path_2201-3" data-name="Path 2201" transform="translate(0 0)" fill="#627d5c">
          <path d="M 5.626156330108643 5.057462692260742 L 0.5836411118507385 2.671935319900513 L 5.626145839691162 0.2767695188522339 L 10.6695032119751 2.671940326690674 L 5.626156330108643 5.057462692260742 Z" stroke="none"/>
          <path d="M 5.626164436340332 0.5535330772399902 L 1.167274475097656 2.67148494720459 L 5.626153945922852 4.780904293060303 L 10.08578872680664 2.671479940414429 L 5.626164436340332 0.5535330772399902 M 5.626142024993896 3.337860107421875e-06 L 11.25322246551514 2.672393083572388 L 5.626142024993896 5.334022998809814 L 1.9073486328125e-06 2.672393083572388 L 5.626142024993896 3.337860107421875e-06 Z" stroke="none" fill="#63be72"/>
        </g>
      </g>
    </g>
    <path id="Path_5444" data-name="Path 5444" d="M5.288,2.5l.046.057.034.058.022.057V2.81l-.022.057-.034.058-.046.057-.046.046-.056.034-.068.012-.058.012H.343L.274,3.072.218,3.061.16,3.027.114,2.981.069,2.924.034,2.866.012,2.81,0,2.74l.012-.068.022-.057.035-.058L.114,2.5,2.467.114,2.513.068,2.57.034,2.638.012,2.707,0l.057.012.068.022L2.89.068l.046.046L5.288,2.5Z" transform="translate(3040.31 -3017.969) rotate(135)" fill="#fff" fill-rule="evenodd"/>
  </g>
</svg>
