<svg xmlns="http://www.w3.org/2000/svg" width="39.998" height="39.998" viewBox="0 0 39.998 39.998">
  <g id="Set_Static" data-name="Set Static" transform="translate(-11359.55 360.856)">
    <g id="Group_1190" data-name="Group 1190" transform="translate(11365.928 -355.324)">
      <g id="Path_2202" data-name="Path 2202" transform="translate(0.275 0.264)" fill="#324043">
        <path d="M 13.2930965423584 29.3034839630127 L 12.87199592590332 29.10651397705078 L -0.4236938059329987 22.88750457763672 L -1.000003814697266 22.61793327331543 L -1.000003814697266 21.98169326782227 L -1.000003814697266 6.433684349060059 L -1.000003814697266 5.80665397644043 L -0.4355838000774384 5.533534049987793 L 12.86010646820068 -0.9001458287239075 L 13.29302597045898 -1.109635829925537 L 13.72693634033203 -0.9022257924079895 L 27.18688583374023 5.531454086303711 L 27.75563621520996 5.803304195404053 L 27.75563621520996 6.433684349060059 L 27.75563621520996 21.98169326782227 L 27.75563621520996 22.62123489379883 L 27.1750659942627 22.88948440551758 L 13.71511650085449 29.10849380493164 L 13.2930965423584 29.3034839630127 Z" stroke="none"/>
        <path d="M 13.29568576812744 3.814697265625e-06 L -3.814697265625e-06 6.433683395385742 L -3.814697265625e-06 21.9816837310791 L 13.29568576812744 28.20070457458496 L 26.75563621520996 21.9816837310791 L 26.75563621520996 6.433683395385742 L 13.29568576812744 3.814697265625e-06 M 13.29036617279053 -2.219264984130859 L 28.75563621520996 5.172933578491211 L 28.75563621520996 23.26076507568359 L 13.29050636291504 30.40625381469727 L -2.000003814697266 23.25416374206543 L -2.000003814697266 5.179624557495117 L 13.29036617279053 -2.219264984130859 Z" stroke="none" fill="#2d2d2d"/>
      </g>
      <g id="Group_842" data-name="Group 842">
        <g id="Path_2199" data-name="Path 2199" transform="translate(0 6.47)" fill="#6b4e4e">
          <path d="M 13.12052440643311 21.6734676361084 L 0.5000045895576477 15.7035493850708 L 0.5000045895576477 0.7896280288696289 L 13.12052440643311 6.75954532623291 L 13.12052440643311 21.6734676361084 Z" stroke="none"/>
          <path d="M 1.000004768371582 1.579273223876953 L 1.000004768371582 15.38693618774414 L 12.62052440643311 20.88382148742676 L 12.62052440643311 7.07615852355957 L 1.000004768371582 1.579273223876953 M 4.76837158203125e-06 -1.9073486328125e-06 L 13.62052440643311 6.442947387695312 L 13.62052440643311 22.46309661865234 L 4.76837158203125e-06 16.0201473236084 L 4.76837158203125e-06 -1.9073486328125e-06 Z" stroke="none" fill="#cc9393"/>
        </g>
        <g id="Path_2200" data-name="Path 2200" transform="translate(13.621 6.47)" fill="#7e6363">
          <path d="M 0.5000045895576477 21.6734676361084 L 0.5000045895576477 6.75954532623291 L 13.12052440643311 0.7896280288696289 L 13.12052440643311 15.7035493850708 L 0.5000045895576477 21.6734676361084 Z" stroke="none"/>
          <path d="M 12.62052440643311 1.579273223876953 L 1.000004768371582 7.07615852355957 L 1.000004768371582 20.88382148742676 L 12.62052440643311 15.38693618774414 L 12.62052440643311 1.579273223876953 M 13.62052440643311 -1.9073486328125e-06 L 13.62052440643311 16.0201473236084 L 4.76837158203125e-06 22.46309661865234 L 4.76837158203125e-06 6.442947387695312 L 13.62052440643311 -1.9073486328125e-06 Z" stroke="none" fill="#cc9393"/>
        </g>
        <g id="Path_2201" data-name="Path 2201" fill="#806060">
          <path d="M 13.62053966522217 12.36022281646729 L 1.167268633842468 6.468775272369385 L 13.62055015563965 0.5535320639610291 L 26.07592391967773 6.468770027160645 L 13.62053966522217 12.36022281646729 Z" stroke="none"/>
          <path d="M 13.62056159973145 1.107062339782715 L 2.334545135498047 6.467860698699951 L 13.62056159973145 11.80709838867188 L 24.90848350524902 6.467860698699951 L 13.62056159973145 1.107062339782715 M 13.62052726745605 1.9073486328125e-06 L 27.24335670471191 6.469682216644287 L 13.62052726745605 12.91334247589111 L -1.9073486328125e-06 6.469682216644287 L 13.62052726745605 1.9073486328125e-06 Z" stroke="none" fill="#cc9393"/>
        </g>
      </g>
    </g>
    <path id="Path_2533" data-name="Path 2533" d="M5.26,2.488l.046.056.034.057.022.056v.137l-.022.056-.034.057-.046.056-.046.046-.056.034-.068.012-.057.012H.341L.273,3.056.217,3.044.159,3.01.114,2.965.069,2.908.034,2.851.012,2.795,0,2.726l.012-.068L.034,2.6l.035-.057.045-.056L2.454.114,2.5.068,2.556.034,2.624.012,2.693,0l.056.012.068.022.057.034L2.92.114,5.26,2.488Z" transform="translate(11399.396 -324.65) rotate(135)" fill="#c6c6c6" fill-rule="evenodd"/>
    <g id="select" transform="translate(11359.55 -360.856)">
      <rect id="Rectangle_678" data-name="Rectangle 678" width="39.998" height="39.998" fill="none"/>
    </g>
  </g>
</svg>
