<svg xmlns="http://www.w3.org/2000/svg" width="40" height="40" viewBox="0 0 40 40">
  <g id="Set_Dynamic_" data-name="Set Dynamic " transform="translate(-2943.119 3051.729)">
    <g id="Group_1190" data-name="Group 1190" transform="translate(2946.081 -3047.931)" opacity="0.21">
      <g id="Path_2202" data-name="Path 2202" transform="translate(0.228 0.219)" fill="#2d2d2d">
        <path d="M 11.00779342651367 23.90188789367676 L 10.79724311828613 23.80339813232422 L -0.2118364125490189 18.65397644042969 L -0.4999964237213135 18.51919746398926 L -0.4999964237213135 18.20107650756836 L -0.4999964237213135 5.327157020568848 L -0.4999964237213135 5.013637065887451 L -0.2177864164113998 4.877077102661133 L 10.79129314422607 -0.4500828087329865 L 11.00775337219238 -0.5548228025436401 L 11.22471332550049 -0.4511228203773499 L 22.36979293823242 4.876037120819092 L 22.6541633605957 5.011967182159424 L 22.6541633605957 5.327157020568848 L 22.6541633605957 18.20107650756836 L 22.6541633605957 18.52084732055664 L 22.3638744354248 18.65496635437012 L 11.21879386901855 23.80438804626465 L 11.00779342651367 23.90188789367676 Z" stroke="none"/>
        <path d="M 11.00908374786377 -1.9073486328125e-06 L 3.814697265625e-06 5.327157974243164 L 3.814697265625e-06 18.20107650756836 L 11.00908374786377 23.35049629211426 L 22.1541633605957 18.20107650756836 L 22.1541633605957 5.327157974243164 L 11.00908374786377 -1.9073486328125e-06 M 11.00642395019531 -1.10963249206543 L 23.1541633605957 4.69677734375 L 23.1541633605957 18.84061813354492 L 11.00649356842041 24.45326805114746 L -0.9999961853027344 18.83731651306152 L -0.9999961853027344 4.700126647949219 L 11.00642395019531 -1.10963249206543 Z" stroke="none" fill="#2d2d2d"/>
      </g>
      <g id="Group_842" data-name="Group 842" transform="translate(0 0)">
        <g id="Path_2199" data-name="Path 2199" transform="translate(0 5.357)" fill="#556054">
          <path d="M 11.02805709838867 18.20488166809082 L 0.2499971240758896 13.10656452178955 L 0.2499971240758896 0.3948181867599487 L 11.02805709838867 5.493134498596191 L 11.02805709838867 18.20488166809082 Z" stroke="none"/>
          <path d="M 0.4999971389770508 0.7896213531494141 L 0.4999971389770508 12.94826507568359 L 10.77805709838867 17.81005859375 L 10.77805709838867 5.651424407958984 L 0.4999971389770508 0.7896213531494141 M -2.86102294921875e-06 -5.7220458984375e-06 L 11.27805709838867 5.334824562072754 L 11.27805709838867 18.59968566894531 L -2.86102294921875e-06 13.26486492156982 L -2.86102294921875e-06 -5.7220458984375e-06 Z" stroke="none" fill="#63be72"/>
        </g>
        <g id="Path_2200" data-name="Path 2200" transform="translate(11.278 5.357)" fill="#607d65">
          <path d="M 0.2499971240758896 18.20488166809082 L 0.2499971240758896 5.493134498596191 L 11.02805709838867 0.3948181867599487 L 11.02805709838867 13.10656452178955 L 0.2499971240758896 18.20488166809082 Z" stroke="none"/>
          <path d="M 10.77805709838867 0.7896213531494141 L 0.4999971389770508 5.651424407958984 L 0.4999971389770508 17.81005859375 L 10.77805709838867 12.94826507568359 L 10.77805709838867 0.7896213531494141 M 11.27805709838867 -5.7220458984375e-06 L 11.27805709838867 13.26486492156982 L -2.86102294921875e-06 18.59968566894531 L -2.86102294921875e-06 5.334824562072754 L 11.27805709838867 -5.7220458984375e-06 Z" stroke="none" fill="#63be72"/>
        </g>
        <g id="Path_2201" data-name="Path 2201" transform="translate(0 0)" fill="#627d5c">
          <path d="M 11.27806854248047 10.4158353805542 L 0.5836462378501892 5.356509208679199 L 11.27805805206299 0.2767620086669922 L 21.97428131103516 5.356513977050781 L 11.27806854248047 10.4158353805542 Z" stroke="none"/>
          <path d="M 11.278076171875 0.5535249710083008 L 1.167282104492188 5.356059074401855 L 11.27806568145752 10.13927745819092 L 21.39056396484375 5.356054306030273 L 11.278076171875 0.5535249710083008 M 11.27805423736572 -3.814697265625e-06 L 22.55800437927246 5.356966018676758 L 11.27805423736572 10.69239616394043 L 3.814697265625e-06 5.356966018676758 L 11.27805423736572 -3.814697265625e-06 Z" stroke="none" fill="#63be72"/>
        </g>
      </g>
    </g>
    <g id="Group_3787" data-name="Group 3787" transform="translate(2951.871 -3044.931)" opacity="0.55">
      <g id="Path_2202-2" data-name="Path 2202" transform="translate(0.228 0.219)" fill="#2d2d2d">
        <path d="M 11.00779342651367 23.90188789367676 L 10.79724311828613 23.80339813232422 L -0.2118364125490189 18.65397644042969 L -0.4999964237213135 18.51919746398926 L -0.4999964237213135 18.20107650756836 L -0.4999964237213135 5.327157020568848 L -0.4999964237213135 5.013637065887451 L -0.2177864164113998 4.877077102661133 L 10.79129314422607 -0.4500828087329865 L 11.00775337219238 -0.5548228025436401 L 11.22471332550049 -0.4511228203773499 L 22.36979293823242 4.876037120819092 L 22.6541633605957 5.011967182159424 L 22.6541633605957 5.327157020568848 L 22.6541633605957 18.20107650756836 L 22.6541633605957 18.52084732055664 L 22.3638744354248 18.65496635437012 L 11.21879386901855 23.80438804626465 L 11.00779342651367 23.90188789367676 Z" stroke="none"/>
        <path d="M 11.00908374786377 -1.9073486328125e-06 L 3.814697265625e-06 5.327157974243164 L 3.814697265625e-06 18.20107650756836 L 11.00908374786377 23.35049629211426 L 22.1541633605957 18.20107650756836 L 22.1541633605957 5.327157974243164 L 11.00908374786377 -1.9073486328125e-06 M 11.00642395019531 -1.10963249206543 L 23.1541633605957 4.69677734375 L 23.1541633605957 18.84061813354492 L 11.00649356842041 24.45326805114746 L -0.9999961853027344 18.83731651306152 L -0.9999961853027344 4.700126647949219 L 11.00642395019531 -1.10963249206543 Z" stroke="none" fill="#2d2d2d"/>
      </g>
      <g id="Group_842-2" data-name="Group 842" transform="translate(0 0)">
        <g id="Path_2199-2" data-name="Path 2199" transform="translate(0 5.357)" fill="#556054">
          <path d="M 11.02805709838867 18.20488166809082 L 0.2499971240758896 13.10656452178955 L 0.2499971240758896 0.3948181867599487 L 11.02805709838867 5.493134498596191 L 11.02805709838867 18.20488166809082 Z" stroke="none"/>
          <path d="M 0.4999971389770508 0.7896213531494141 L 0.4999971389770508 12.94826507568359 L 10.77805709838867 17.81005859375 L 10.77805709838867 5.651424407958984 L 0.4999971389770508 0.7896213531494141 M -2.86102294921875e-06 -5.7220458984375e-06 L 11.27805709838867 5.334824562072754 L 11.27805709838867 18.59968566894531 L -2.86102294921875e-06 13.26486492156982 L -2.86102294921875e-06 -5.7220458984375e-06 Z" stroke="none" fill="#63be72"/>
        </g>
        <g id="Path_2200-2" data-name="Path 2200" transform="translate(11.278 5.357)" fill="#607d65">
          <path d="M 0.2499971240758896 18.20488166809082 L 0.2499971240758896 5.493134498596191 L 11.02805709838867 0.3948181867599487 L 11.02805709838867 13.10656452178955 L 0.2499971240758896 18.20488166809082 Z" stroke="none"/>
          <path d="M 10.77805709838867 0.7896213531494141 L 0.4999971389770508 5.651424407958984 L 0.4999971389770508 17.81005859375 L 10.77805709838867 12.94826507568359 L 10.77805709838867 0.7896213531494141 M 11.27805709838867 -5.7220458984375e-06 L 11.27805709838867 13.26486492156982 L -2.86102294921875e-06 18.59968566894531 L -2.86102294921875e-06 5.334824562072754 L 11.27805709838867 -5.7220458984375e-06 Z" stroke="none" fill="#63be72"/>
        </g>
        <g id="Path_2201-2" data-name="Path 2201" transform="translate(0 0)" fill="#627d5c">
          <path d="M 11.27806854248047 10.4158353805542 L 0.5836462378501892 5.356509208679199 L 11.27805805206299 0.2767620086669922 L 21.97428131103516 5.356513977050781 L 11.27806854248047 10.4158353805542 Z" stroke="none"/>
          <path d="M 11.278076171875 0.5535249710083008 L 1.167282104492188 5.356059074401855 L 11.27806568145752 10.13927745819092 L 21.39056396484375 5.356054306030273 L 11.278076171875 0.5535249710083008 M 11.27805423736572 -3.814697265625e-06 L 22.55800437927246 5.356966018676758 L 11.27805423736572 10.69239616394043 L 3.814697265625e-06 5.356966018676758 L 11.27805423736572 -3.814697265625e-06 Z" stroke="none" fill="#63be72"/>
        </g>
      </g>
    </g>
    <g id="Group_3786" data-name="Group 3786" transform="translate(2957.599 -3041.987)">
      <g id="Path_2202-3" data-name="Path 2202" transform="translate(0.228 0.219)" fill="#2d2d2d">
        <path d="M 11.00779342651367 23.90188789367676 L 10.79724311828613 23.80339813232422 L -0.2118364125490189 18.65397644042969 L -0.4999964237213135 18.51919746398926 L -0.4999964237213135 18.20107650756836 L -0.4999964237213135 5.327157020568848 L -0.4999964237213135 5.013637065887451 L -0.2177864164113998 4.877077102661133 L 10.79129314422607 -0.4500828087329865 L 11.00775337219238 -0.5548228025436401 L 11.22471332550049 -0.4511228203773499 L 22.36979293823242 4.876037120819092 L 22.6541633605957 5.011967182159424 L 22.6541633605957 5.327157020568848 L 22.6541633605957 18.20107650756836 L 22.6541633605957 18.52084732055664 L 22.3638744354248 18.65496635437012 L 11.21879386901855 23.80438804626465 L 11.00779342651367 23.90188789367676 Z" stroke="none"/>
        <path d="M 11.00908374786377 -1.9073486328125e-06 L 3.814697265625e-06 5.327157974243164 L 3.814697265625e-06 18.20107650756836 L 11.00908374786377 23.35049629211426 L 22.1541633605957 18.20107650756836 L 22.1541633605957 5.327157974243164 L 11.00908374786377 -1.9073486328125e-06 M 11.00642395019531 -1.10963249206543 L 23.1541633605957 4.69677734375 L 23.1541633605957 18.84061813354492 L 11.00649356842041 24.45326805114746 L -0.9999961853027344 18.83731651306152 L -0.9999961853027344 4.700126647949219 L 11.00642395019531 -1.10963249206543 Z" stroke="none" fill="#2d2d2d"/>
      </g>
      <g id="Group_842-3" data-name="Group 842" transform="translate(0 0)">
        <g id="Path_2199-3" data-name="Path 2199" transform="translate(0 5.357)" fill="#556054">
          <path d="M 11.02805709838867 18.20488166809082 L 0.2499971240758896 13.10656452178955 L 0.2499971240758896 0.3948181867599487 L 11.02805709838867 5.493134498596191 L 11.02805709838867 18.20488166809082 Z" stroke="none"/>
          <path d="M 0.4999971389770508 0.7896213531494141 L 0.4999971389770508 12.94826507568359 L 10.77805709838867 17.81005859375 L 10.77805709838867 5.651424407958984 L 0.4999971389770508 0.7896213531494141 M -2.86102294921875e-06 -5.7220458984375e-06 L 11.27805709838867 5.334824562072754 L 11.27805709838867 18.59968566894531 L -2.86102294921875e-06 13.26486492156982 L -2.86102294921875e-06 -5.7220458984375e-06 Z" stroke="none" fill="#63be72"/>
        </g>
        <g id="Path_2200-3" data-name="Path 2200" transform="translate(11.278 5.357)" fill="#607d65">
          <path d="M 0.2499971240758896 18.20488166809082 L 0.2499971240758896 5.493134498596191 L 11.02805709838867 0.3948181867599487 L 11.02805709838867 13.10656452178955 L 0.2499971240758896 18.20488166809082 Z" stroke="none"/>
          <path d="M 10.77805709838867 0.7896213531494141 L 0.4999971389770508 5.651424407958984 L 0.4999971389770508 17.81005859375 L 10.77805709838867 12.94826507568359 L 10.77805709838867 0.7896213531494141 M 11.27805709838867 -5.7220458984375e-06 L 11.27805709838867 13.26486492156982 L -2.86102294921875e-06 18.59968566894531 L -2.86102294921875e-06 5.334824562072754 L 11.27805709838867 -5.7220458984375e-06 Z" stroke="none" fill="#63be72"/>
        </g>
        <g id="Path_2201-3" data-name="Path 2201" transform="translate(0 0)" fill="#627d5c">
          <path d="M 11.27806854248047 10.4158353805542 L 0.5836462378501892 5.356509208679199 L 11.27805805206299 0.2767620086669922 L 21.97428131103516 5.356513977050781 L 11.27806854248047 10.4158353805542 Z" stroke="none"/>
          <path d="M 11.278076171875 0.5535249710083008 L 1.167282104492188 5.356059074401855 L 11.27806568145752 10.13927745819092 L 21.39056396484375 5.356054306030273 L 11.278076171875 0.5535249710083008 M 11.27805423736572 -3.814697265625e-06 L 22.55800437927246 5.356966018676758 L 11.27805423736572 10.69239616394043 L 3.814697265625e-06 5.356966018676758 L 11.27805423736572 -3.814697265625e-06 Z" stroke="none" fill="#63be72"/>
        </g>
      </g>
    </g>
    <path id="Path_2533" data-name="Path 2533" d="M5.228,2.473l.045.056.034.057.022.056v.136l-.022.056-.034.057-.045.056-.045.045-.056.034-.068.012L5,3.05H.339L.271,3.038.215,3.026.158,2.993.113,2.947.069,2.891.034,2.834.012,2.778,0,2.71l.012-.068.022-.056.035-.057.044-.056L2.44.113,2.485.068,2.541.034,2.608.012,2.677,0l.056.012L2.8.034l.057.034L2.9.113l2.326,2.36Z" transform="translate(2983.119 -3015.498) rotate(135)" fill="#c6c6c6" fill-rule="evenodd"/>
    <g id="select" transform="translate(2943.119 -3051.729)">
      <rect id="Rectangle_678" data-name="Rectangle 678" width="40" height="40" fill="none"/>
    </g>
  </g>
</svg>
