<?xml version="1.0" encoding="UTF-8" standalone="no"?>
<svg
   xmlns:dc="http://purl.org/dc/elements/1.1/"
   xmlns:cc="http://creativecommons.org/ns#"
   xmlns:rdf="http://www.w3.org/1999/02/22-rdf-syntax-ns#"
   xmlns:svg="http://www.w3.org/2000/svg"
   xmlns="http://www.w3.org/2000/svg"
   xmlns:sodipodi="http://sodipodi.sourceforge.net/DTD/sodipodi-0.dtd"
   xmlns:inkscape="http://www.inkscape.org/namespaces/inkscape"
   width="51.138016"
   height="51.044159"
   viewBox="0 0 51.138014 51.04416"
   version="1.1"
   id="svg3"
   sodipodi:docname="0101.svg"
   inkscape:version="0.92.4 (5da689c313, 2019-01-14)">
  <metadata
     id="metadata9">
    <rdf:RDF>
      <cc:Work
         rdf:about="">
        <dc:format>image/svg+xml</dc:format>
        <dc:type
           rdf:resource="http://purl.org/dc/dcmitype/StillImage" />
        <dc:title></dc:title>
      </cc:Work>
    </rdf:RDF>
  </metadata>
  <defs
     id="defs7" />
  <sodipodi:namedview
     pagecolor="#ffffff"
     bordercolor="#666666"
     borderopacity="1"
     objecttolerance="10"
     gridtolerance="10"
     guidetolerance="10"
     inkscape:pageopacity="0"
     inkscape:pageshadow="2"
     inkscape:window-width="2159"
     inkscape:window-height="1353"
     id="namedview5"
     showgrid="false"
     fit-margin-left="8"
     fit-margin-right="8"
     fit-margin-top="19"
     fit-margin-bottom="19"
     inkscape:zoom="13.177367"
     inkscape:cx="25.570015"
     inkscape:cy="25.522078"
     inkscape:window-x="706"
     inkscape:window-y="309"
     inkscape:window-maximized="0"
     inkscape:current-layer="svg3" />
  <path
     id="Path_95"
     data-name="Path 95"
     d="m 15.796015,28.222079 v -5.4 a 3.682,3.682 0 0 0 -3.884,-3.816 3.7,3.7 0 0 0 -3.9100005,3.816 v 5.4 a 3.7,3.7 0 0 0 3.9100005,3.816 3.682,3.682 0 0 0 3.884,-3.816 z m -2.34,-0.018 a 1.538,1.538 0 0 1 -1.544,1.726 1.55,1.55 0 0 1 -1.57,-1.726 v -5.346 a 1.566,1.566 0 0 1 1.57,-1.746 1.553,1.553 0 0 1 1.544,1.746 z m 10.134,3.726 v -12.816 h -2.34 l -2.61,2.268 v 2.52 l 2.61,-2.268 v 10.296 z m 11.754,-3.708 v -5.4 a 3.682,3.682 0 0 0 -3.888,-3.816 3.7,3.7 0 0 0 -3.906,3.816 v 5.4 a 3.7,3.7 0 0 0 3.906,3.816 3.682,3.682 0 0 0 3.888,-3.816 z m -2.34,-0.018 a 1.538,1.538 0 0 1 -1.548,1.726 1.55,1.55 0 0 1 -1.566,-1.728 v -5.344 a 1.566,1.566 0 0 1 1.566,-1.746 1.553,1.553 0 0 1 1.548,1.746 z m 10.134,3.726 v -12.816 h -2.34 l -2.61,2.268 v 2.52 l 2.61,-2.268 v 10.296 z"
     inkscape:connector-curvature="0"
     style="fill:#ffffff;fill-opacity:1" />
</svg>
