<svg xmlns="http://www.w3.org/2000/svg" width="33" height="33" viewBox="0 0 33 33">
  <g id="clear_view" data-name="clear view" transform="translate(-11594 1168)">
    <rect id="Rectangle_678" data-name="Rectangle 678" width="33" height="33" transform="translate(11594 -1168)" fill="none"/>
    <path id="Subtraction_18" data-name="Subtraction 18" d="M16334.5-737.5h-22v-14h22v14Zm-10.655-4.288h0l2.631,2.672.14.115.156.078.155.041.177.021.172-.021.16-.041.135-.078.156-.115,1.209-1.23.119-.139.058-.135.036-.176.021-.172-.021-.176-.036-.156-.058-.156-.119-.139-2.652-2.689,2.652-2.677.119-.131.058-.16.036-.156.021-.176-.021-.172-.036-.16-.058-.135-.119-.156-1.209-1.23-.156-.115-.135-.082-.16-.037-.172-.021-.177.021-.155.037-.156.082-.14.115-2.632,2.693-2.636-2.693-.114-.115-.156-.082-.176-.037-.177-.021-.155.021-.177.037-.155.082-.115.115-1.229,1.23-.1.156-.078.135-.058.16-.02.172.02.176.058.156.078.16.1.131,2.652,2.677-2.652,2.689-.1.14-.078.156-.058.156-.02.176.02.172.058.176.078.135.1.139,1.229,1.23.115.115.155.078.177.041.155.021.177-.021.176-.041.156-.078.114-.115,2.635-2.672Z" transform="translate(-4713 -409)" fill="#c57171"/>
    <path id="My_computer" d="M709.126,289.8V277.808l-.029-.139-.113-.142-.055-.055-.084-.058-.171-.026H687.969l-.139.026-.055.058-.087.055-.084.142-.026.139V289.8l.026.139.084.142.142.113.139.026h20.705l.171-.026.139-.113.113-.142Zm1.627-11.993v14.525l-.026.2-.058.2-.055.2-.084.194-.113.142-.113.2-.168.139-.142.142-.168.139-.168.113-.168.084-.2.058-.168.026-.226.029-.226.029h-9.093v1.937h2.687l.113.2.058.142.026.139v.281l-.026.142-.084.139-.113.142-.142.11-.139.058-.142.055-.168.029h-6.631l-.168-.029-.139-.055-.142-.058-.139-.11-.113-.142-.055-.139-.029-.142-.029-.168.029-.113v-.139l.084-.142.084-.2h2.687v-1.937h-9.122l-.194-.029-.2-.029-.2-.026-.2-.058-.168-.084-.171-.113-.168-.139-.139-.142-.142-.139-.139-.2-.113-.142-.084-.194-.058-.2-.026-.2-.029-.2-.029-.2V277.808l.029-.2.029-.223.026-.171.058-.194.084-.2.113-.171.139-.168.142-.168.139-.113.168-.139.171-.113.168-.084.2-.084.2-.029.2-.029H708.9l.226.029.168.029.2.084.168.084.168.113.168.139.142.113.168.168.113.168.113.171.084.2.055.194.058.171.026.223Z" transform="translate(10912.393 -1437.295)" fill="#c5c5c5" fill-rule="evenodd"/>
  </g>
</svg>
