<?xml version="1.0" encoding="UTF-8" standalone="no"?>
<svg
   xmlns:dc="http://purl.org/dc/elements/1.1/"
   xmlns:cc="http://creativecommons.org/ns#"
   xmlns:rdf="http://www.w3.org/1999/02/22-rdf-syntax-ns#"
   xmlns:svg="http://www.w3.org/2000/svg"
   xmlns="http://www.w3.org/2000/svg"
   xmlns:sodipodi="http://sodipodi.sourceforge.net/DTD/sodipodi-0.dtd"
   xmlns:inkscape="http://www.inkscape.org/namespaces/inkscape"
   inkscape:version="1.0 (4035a4fb49, 2020-05-01)"
   sodipodi:docname="forbidden_black.svg"
   version="1.1"
   width="512"
   viewBox="0 0 60 60"
   height="512"
   enable-background="new 0 0 60 60"
   id="Layer_1">
  <metadata
     id="metadata9">
    <rdf:RDF>
      <cc:Work
         rdf:about="">
        <dc:format>image/svg+xml</dc:format>
        <dc:type
           rdf:resource="http://purl.org/dc/dcmitype/StillImage" />
      </cc:Work>
    </rdf:RDF>
  </metadata>
  <defs
     id="defs7" />
  <sodipodi:namedview
     inkscape:current-layer="Layer_1"
     inkscape:window-maximized="1"
     inkscape:window-y="-8"
     inkscape:window-x="1912"
     inkscape:cy="256"
     inkscape:cx="256"
     inkscape:zoom="1.4355469"
     showgrid="false"
     id="namedview5"
     inkscape:window-height="1137"
     inkscape:window-width="1920"
     inkscape:pageshadow="2"
     inkscape:pageopacity="0"
     guidetolerance="10"
     gridtolerance="10"
     objecttolerance="10"
     borderopacity="1"
     bordercolor="#666666"
     pagecolor="#ffffff" />
  <path
     style="fill:#ffffff;fill-opacity:1"
     id="path2"
     d="m30.03 60c-16.542 0-30-13.458-30-30s13.458-30 30-30 30 13.458 30 30-13.458 30-30 30zm0-58c-15.439 0-28 12.561-28 28s12.561 28 28 28 28-12.561 28-28-12.561-28-28-28zm0 53c-5.65 0-10.989-1.853-15.439-5.358-.225-.177-.363-.441-.379-.727-.017-.285.089-.564.291-.766l33.676-33.676c.202-.202.478-.307.766-.291.285.017.55.155.727.379 3.505 4.45 5.358 9.789 5.358 15.439 0 13.785-11.215 25-25 25zm-13.299-6.252c3.904 2.786 8.478 4.252 13.298 4.252 12.682 0 23-10.318 23-23 0-4.82-1.466-9.394-4.252-13.298zm-5.112-2.373c-.015 0-.029 0-.044-.001-.28-.013-.542-.142-.723-.357-3.754-4.488-5.822-10.176-5.822-16.017 0-13.785 11.215-25 25-25 5.84 0 11.528 2.068 16.017 5.822.215.18.345.442.357.723.012.28-.093.553-.292.751l-33.786 33.786c-.188.188-.442.293-.707.293zm18.411-39.375c-12.682 0-23 10.318-23 23 0 5.007 1.653 9.893 4.674 13.876l32.203-32.203c-3.985-3.02-8.871-4.673-13.877-4.673z" />
</svg>
