<svg xmlns="http://www.w3.org/2000/svg" width="33" height="33" viewBox="0 0 33 33">
  <g id="remove_from_view" data-name="remove from view" transform="translate(-11594 1168)">
    <rect id="Rectangle_678" data-name="Rectangle 678" width="33" height="33" transform="translate(11594 -1168)" fill="none"/>
    <path id="My_computer" d="M709.126,289.8V277.808l-.029-.139-.113-.142-.055-.055-.084-.058-.171-.026H687.969l-.139.026-.055.058-.087.055-.084.142-.026.139V289.8l.026.139.084.142.142.113.139.026h20.705l.171-.026.139-.113.113-.142Zm1.627-11.993v14.525l-.026.2-.058.2-.055.2-.084.194-.113.142-.113.2-.168.139-.142.142-.168.139-.168.113-.168.084-.2.058-.168.026-.226.029-.226.029h-9.093v1.937h2.687l.113.2.058.142.026.139v.281l-.026.142-.084.139-.113.142-.142.11-.139.058-.142.055-.168.029h-6.631l-.168-.029-.139-.055-.142-.058-.139-.11-.113-.142-.055-.139-.029-.142-.029-.168.029-.113v-.139l.084-.142.084-.2h2.687v-1.937h-9.122l-.194-.029-.2-.029-.2-.026-.2-.058-.168-.084-.171-.113-.168-.139-.139-.142-.142-.139-.139-.2-.113-.142-.084-.194-.058-.2-.026-.2-.029-.2-.029-.2V277.808l.029-.2.029-.223.026-.171.058-.194.084-.2.113-.171.139-.168.142-.168.139-.113.168-.139.171-.113.168-.084.2-.084.2-.029.2-.029H708.9l.226.029.168.029.2.084.168.084.168.113.168.139.142.113.168.168.113.168.113.171.084.2.055.194.058.171.026.223Z" transform="translate(10912.393 -1437.295)" fill="#c5c5c5" fill-rule="evenodd"/>
    <path id="Remove" d="M250.413,31.29l.117.137.058.157.038.155.02.177-.02.175-.038.175-.058.137-.117.137L249.2,33.767l-.155.119-.137.076-.157.04-.175.02L248.4,34l-.155-.04-.157-.076-.137-.119-2.632-2.673-2.634,2.673-.117.119-.157.076-.175.04-.177.02-.155-.02-.175-.04-.157-.076-.117-.119-1.231-1.229-.1-.137-.078-.137-.058-.175-.02-.175.02-.177.058-.155.078-.157.1-.137,2.654-2.691-2.654-2.675-.1-.135-.078-.157-.058-.157-.02-.175.02-.175.058-.157.078-.137.1-.155,1.231-1.231.117-.117.157-.078.175-.038.155-.02.177.02.175.038.157.078.117.117,2.634,2.693,2.632-2.693.137-.117.157-.078.155-.038.177-.02.175.02.157.038.137.078.155.117,1.211,1.231.117.155.058.137.038.157.02.175-.02.175-.038.157-.058.157-.117.135L247.759,28.6Z" transform="translate(11365.525 -1181.883)" fill="#c57171" fill-rule="evenodd"/>
  </g>
</svg>
