<?xml version="1.0" encoding="UTF-8"?>
<svg width="33" height="33" version="1.1" viewBox="0 0 33 33" xmlns="http://www.w3.org/2000/svg">
 <g id="clear_view" transform="translate(-11594 1168)" data-name="clear view">
  <rect transform="translate(11594 -1168)" width="33" height="33" fill="none" data-name="Rectangle 678"/>
  <path transform="translate(-4713,-409)" d="m16334-737.5h-22v-14h22z" fill="#71a376" data-name="Subtraction 18"/>
  <path id="My_computer" transform="translate(10912 -1437.3)" d="M709.126,289.8V277.808l-.029-.139-.113-.142-.055-.055-.084-.058-.171-.026H687.969l-.139.026-.055.058-.087.055-.084.142-.026.139V289.8l.026.139.084.142.142.113.139.026h20.705l.171-.026.139-.113.113-.142Zm1.627-11.993v14.525l-.026.2-.058.2-.055.2-.084.194-.113.142-.113.2-.168.139-.142.142-.168.139-.168.113-.168.084-.2.058-.168.026-.226.029-.226.029h-9.093v1.937h2.687l.113.2.058.142.026.139v.281l-.026.142-.084.139-.113.142-.142.11-.139.058-.142.055-.168.029h-6.631l-.168-.029-.139-.055-.142-.058-.139-.11-.113-.142-.055-.139-.029-.142-.029-.168.029-.113v-.139l.084-.142.084-.2h2.687v-1.937h-9.122l-.194-.029-.2-.029-.2-.026-.2-.058-.168-.084-.171-.113-.168-.139-.139-.142-.142-.139-.139-.2-.113-.142-.084-.194-.058-.2-.026-.2-.029-.2-.029-.2V277.808l.029-.2.029-.223.026-.171.058-.194.084-.2.113-.171.139-.168.142-.168.139-.113.168-.139.171-.113.168-.084.2-.084.2-.029.2-.029H708.9l.226.029.168.029.2.084.168.084.168.113.168.139.142.113.168.168.113.168.113.171.084.2.055.194.058.171.026.223Z" fill="#c5c5c5" fill-rule="evenodd"/>
 </g>
</svg>
