<svg xmlns="http://www.w3.org/2000/svg" width="33" height="33" viewBox="0 0 33 33">
  <g id="Drop_Start" data-name="Drop Start" transform="translate(-11451.793 461.367)">
    <g id="Group_1185" data-name="Group 1185" transform="translate(4860.517 -1777)">
      <path id="Path_2398" data-name="Path 2398" d="M636.029,154.589l-10.916,6.163-.107.035-.089.018-.072-.018-.072-.018-.053-.035-.053-.072-.018-.088-.018-.109V148.176l.018-.107.018-.09.053-.072.053-.035.072-.018.072-.018.089.018.107.037,10.916,6.163.088.07.053.053.037.072v.144l-.037.072-.053.053-.088.072Z" transform="translate(5968 1169)" fill="#71a376" fill-rule="evenodd"/>
    </g>
    <g id="Group_1187" data-name="Group 1187" transform="translate(-89 11)">
      <line id="Line_516" data-name="Line 516" x2="2" y2="2" transform="translate(11546.5 -447.5)" fill="none" stroke="#97acb1" stroke-linecap="round" stroke-width="1"/>
      <line id="Line_518" data-name="Line 518" x1="2" y2="2" transform="translate(11548.5 -447.5)" fill="none" stroke="#97acb1" stroke-linecap="round" stroke-width="1"/>
      <line id="Line_517" data-name="Line 517" y2="8" transform="translate(11548.5 -453.5)" fill="none" stroke="#97acb1" stroke-linecap="round" stroke-width="1"/>
    </g>
    <g id="Group_1188" data-name="Group 1188" transform="translate(-67.85 11)">
      <line id="Line_516-2" data-name="Line 516" x2="2" y2="2" transform="translate(11546.5 -447.5)" fill="none" stroke="#97acb1" stroke-linecap="round" stroke-width="1"/>
      <line id="Line_518-2" data-name="Line 518" x1="2" y2="2" transform="translate(11548.5 -447.5)" fill="none" stroke="#97acb1" stroke-linecap="round" stroke-width="1"/>
      <line id="Line_517-2" data-name="Line 517" y2="8" transform="translate(11548.5 -453.5)" fill="none" stroke="#97acb1" stroke-linecap="round" stroke-width="1"/>
    </g>
    <g id="Group_1189" data-name="Group 1189" transform="translate(-79 -0.511)">
      <line id="Line_520" data-name="Line 520" y2="8.633" transform="translate(11545.8 -454.122)" fill="none" stroke="#97acb1" stroke-linecap="round" stroke-width="1"/>
      <line id="Line_519" data-name="Line 519" y2="8.633" transform="translate(11551.8 -454.122)" fill="none" stroke="#97acb1" stroke-linecap="round" stroke-width="1"/>
      <line id="Line_521" data-name="Line 521" y2="10.552" transform="translate(11548.8 -457)" fill="none" stroke="#97acb1" stroke-linecap="round" stroke-width="1"/>
    </g>
    <g id="Group_3115" data-name="Group 3115" transform="translate(4910.224 -1630.178)">
      <g id="Path_2202" data-name="Path 2202" transform="translate(6553.445 1189.974)" fill="#324043">
        <path d="M 6.380162715911865 10.12306022644043 L 6.064332485198975 9.975339889526367 L -0.13417749106884 7.076010227203369 L -0.5664075016975403 6.873830318450928 L -0.5664075016975403 6.396650314331055 L -0.5664075016975403 -0.8519099354743958 L -0.5664075016975403 -1.322179913520813 L -0.1430874913930893 -1.527019858360291 L 6.055422306060791 -4.526430130004883 L 6.380102634429932 -4.683549880981445 L 6.70554256439209 -4.527989864349365 L 12.98063278198242 -1.528579950332642 L 13.40719223022461 -1.324689865112305 L 13.40719223022461 -0.8519099354743958 L 13.40719223022461 6.396650314331055 L 13.40719223022461 6.876309871673584 L 12.97176265716553 7.077490329742432 L 6.696672439575195 9.97681999206543 L 6.380162715911865 10.12306022644043 Z" stroke="none"/>
        <path d="M 6.382102489471436 -3.851320266723633 L 0.1835927963256836 -0.8519101142883301 L 0.1835927963256836 6.396640300750732 L 6.382102489471436 9.295980453491211 L 12.65719223022461 6.396640300750732 L 12.65719223022461 -0.8519101142883301 L 6.382102489471436 -3.851320266723633 M 6.378112316131592 -5.515769958496094 L 7.028982639312744 -5.204669952392578 L 13.30407238006592 -2.205259799957275 L 14.15719223022461 -1.79748010635376 L 14.15719223022461 -0.8519101142883301 L 14.15719223022461 6.396640300750732 L 14.15719223022461 7.355950355529785 L 13.28634262084961 7.758319854736328 L 7.011252403259277 10.65765953063965 L 6.378222465515137 10.95014953613281 L 5.746572494506836 10.65468978881836 L -0.4519376754760742 7.755350112915039 L -1.316407203674316 7.35099983215332 L -1.316407203674316 6.396640300750732 L -1.316407203674316 -0.8519101142883301 L -1.316407203674316 -1.792459964752197 L -0.4697675704956055 -2.202139854431152 L 5.728742599487305 -5.201549530029297 L 6.378112316131592 -5.515769958496094 Z" stroke="none" fill="#2d2d2d"/>
      </g>
      <g id="Group_842" data-name="Group 842" transform="translate(6553.5 1186)">
        <g id="Path_2199" data-name="Path 2199" transform="translate(0 3.016)" fill="#5d6e5b">
          <path d="M 5.849956512451172 9.682768821716309 L 0.4999963343143463 7.15207052230835 L 0.4999963343143463 0.7896286845207214 L 5.849956512451172 3.320327281951904 L 5.849956512451172 9.682768821716309 Z" stroke="none"/>
          <path d="M 0.9999961853027344 1.579268455505371 L 0.9999961853027344 6.835462093353271 L 5.349956512451172 8.893129348754883 L 5.349956512451172 3.636935710906982 L 0.9999961853027344 1.579268455505371 M -3.814697265625e-06 -9.5367431640625e-07 L 6.349956512451172 3.003728866577148 L 6.349956512451172 10.47239875793457 L -3.814697265625e-06 7.468668937683105 L -3.814697265625e-06 -9.5367431640625e-07 Z" stroke="none" fill="#70c57e"/>
        </g>
        <g id="Path_2200" data-name="Path 2200" transform="translate(6.35 3.016)" fill="#6f9d77">
          <path d="M 0.4999963343143463 9.682768821716309 L 0.4999963343143463 3.320327281951904 L 5.849956512451172 0.7896286845207214 L 5.849956512451172 7.15207052230835 L 0.4999963343143463 9.682768821716309 Z" stroke="none"/>
          <path d="M 5.349956512451172 1.579268455505371 L 0.9999961853027344 3.636935710906982 L 0.9999961853027344 8.893129348754883 L 5.349956512451172 6.835462093353271 L 5.349956512451172 1.579268455505371 M 6.349956512451172 -9.5367431640625e-07 L 6.349956512451172 7.468668937683105 L -3.814697265625e-06 10.47239875793457 L -3.814697265625e-06 3.003728866577148 L 6.349956512451172 -9.5367431640625e-07 Z" stroke="none" fill="#70c57e"/>
        </g>
        <g id="Path_2201" data-name="Path 2201" transform="translate(15.305 -10.441)" fill="#729d68">
          <path d="M -8.953739166259766 15.90384674072266 L -14.13643932342529 13.45199775695801 L -8.953728675842285 10.99023532867432 L -3.770164012908936 13.45199298858643 L -8.953739166259766 15.90384674072266 Z" stroke="none"/>
          <path d="M -8.953718185424805 11.54376602172852 L -12.969162940979 13.45108222961426 L -8.953718185424805 15.35072231292725 L -4.937602996826172 13.45108222961426 L -8.953718185424805 11.54376602172852 M -8.953752517700195 10.43670463562012 L -2.60273265838623 13.45290565490723 L -8.953752517700195 16.45696640014648 L -15.30371284484863 13.45290565490723 L -8.953752517700195 10.43670463562012 Z" stroke="none" fill="#70c57e"/>
        </g>
      </g>
    </g>
    <g id="select" transform="translate(-142.207 706.633)">
      <rect id="Rectangle_678" data-name="Rectangle 678" width="33" height="33" transform="translate(11594 -1168)" fill="none"/>
    </g>
  </g>
</svg>
