<svg xmlns="http://www.w3.org/2000/svg" width="33.107" height="33" viewBox="0 0 33.107 33">
  <g id="Set_Dynamic_1" data-name="Set Dynamic 1" transform="translate(-11359.316 360.856)">
    <g id="Group_1190" data-name="Group 1190" transform="translate(4811.078 -1542.292)">
      <g id="Path_2202" data-name="Path 2202" transform="translate(6553.543 1190.069)" fill="none">
        <path d="M.184,1.457,11.153-3.851l11.1,5.308V14.284l-11.1,5.131L.184,14.284Z" stroke="none"/>
        <path d="M 11.1530704498291 -3.851318359375 L 0.1835918426513672 1.456731796264648 L 0.1835918426513672 14.28446197509766 L 11.1530704498291 19.41540145874023 L 22.25806999206543 14.28446197509766 L 22.25806999206543 1.456731796264648 L 11.1530704498291 -3.851318359375 M 11.14775085449219 -6.070589065551758 L 12.01558113098145 -5.655778884887695 L 23.12058067321777 -0.3477287292480469 L 24.25807189941406 0.1959819793701172 L 24.25807189941406 1.456731796264648 L 24.25807189941406 14.28446197509766 L 24.25807189941406 15.56354141235352 L 23.0969409942627 16.10003089904785 L 11.99194049835205 21.23097229003906 L 11.1478910446167 21.62095260620117 L 10.30569076538086 21.22702217102051 L -0.6637897491455078 16.0960807800293 L -1.816408157348633 15.55694198608398 L -1.816408157348633 14.28446197509766 L -1.816408157348633 1.456731796264648 L -1.816408157348633 0.202672004699707 L -0.6875591278076172 -0.3435688018798828 L 10.28192138671875 -5.651618957519531 L 11.14775085449219 -6.070589065551758 Z" stroke="none" fill="#2d2d2d"/>
      </g>
      <g id="Group_842" data-name="Group 842" transform="translate(6553.5 1186)">
        <g id="Path_2199" data-name="Path 2199" transform="translate(0 5.338)" fill="#5d6e5b">
          <path d="M 10.73748302459717 17.74333000183105 L 0.500002920627594 12.90067100524902 L 0.500002920627594 0.7896298766136169 L 10.73748302459717 5.632287502288818 L 10.73748302459717 17.74333000183105 Z" stroke="none"/>
          <path d="M 1.000002861022949 1.579269409179688 L 1.000002861022949 12.58406257629395 L 10.23748302459717 16.95368957519531 L 10.23748302459717 5.948895454406738 L 1.000002861022949 1.579269409179688 M 2.86102294921875e-06 0 L 11.23748302459717 5.315689086914063 L 11.23748302459717 18.532958984375 L 2.86102294921875e-06 13.21726989746094 L 2.86102294921875e-06 0 Z" stroke="none" fill="#6cde7f"/>
        </g>
        <g id="Path_2200" data-name="Path 2200" transform="translate(11.237 5.338)" fill="#6f9d77">
          <path d="M 0.500002920627594 17.74333000183105 L 0.500002920627594 5.632287502288818 L 10.73748302459717 0.7896298766136169 L 10.73748302459717 12.90067100524902 L 0.500002920627594 17.74333000183105 Z" stroke="none"/>
          <path d="M 10.23748302459717 1.579269409179688 L 1.000002861022949 5.948895454406738 L 1.000002861022949 16.95368957519531 L 10.23748302459717 12.58406257629395 L 10.23748302459717 1.579269409179688 M 11.23748302459717 0 L 11.23748302459717 13.21726989746094 L 2.86102294921875e-06 18.532958984375 L 2.86102294921875e-06 5.315689086914063 L 11.23748302459717 0 Z" stroke="none" fill="#6cde7f"/>
        </g>
        <g id="Path_2201" data-name="Path 2201" transform="translate(15.304 -10.437)" fill="#729d68">
          <path d="M -4.066215038299561 20.53762245178223 L -14.13643741607666 15.7735538482666 L -4.06620454788208 10.99023151397705 L 6.005720615386963 15.77354907989502 L -4.066215038299561 20.53762245178223 Z" stroke="none"/>
          <path d="M -4.066192626953125 11.54376220703125 L -12.96916007995605 15.77263832092285 L -4.066192626953125 19.98448944091797 L 4.83828067779541 15.77263832092285 L -4.066192626953125 11.54376220703125 M -4.066226959228516 10.43670082092285 L 7.173152923583984 15.77446174621582 L -4.066226959228516 21.09073257446289 L -15.30370712280273 15.77446174621582 L -4.066226959228516 10.43670082092285 Z" stroke="none" fill="#6cde7f"/>
        </g>
      </g>
    </g>
    <path id="Path_2533" data-name="Path 2533" d="M4.339,2.053l.038.046.028.047.018.046v.113l-.018.046L4.377,2.4l-.038.046L4.3,2.484l-.046.028-.056.01-.047.01H.281l-.056-.01-.046-.01L.131,2.484.094,2.446.057,2.4.028,2.352.01,2.306,0,2.249l.01-.056.018-.046L.057,2.1l.037-.046L2.025.094,2.062.056,2.109.028,2.165.01,2.222,0l.046.01.056.018.047.028.038.038,1.93,1.959Z" transform="translate(11392.424 -330.984) rotate(135)" fill="#c6c6c6" fill-rule="evenodd"/>
    <g id="select" transform="translate(-234.683 807.144)">
      <rect id="Rectangle_678" data-name="Rectangle 678" width="33" height="33" transform="translate(11594 -1168)" fill="none"/>
    </g>
  </g>
</svg>
