<?xml version="1.0" encoding="utf-8"?>
<svg width="33" height="33" viewBox="0 0 33 33" xmlns="http://www.w3.org/2000/svg">
  <g id="Group_1190" data-name="Group 1190" transform="matrix(1, 0, 0, 1, -6548.020996, -1181.789062)">
    <g id="Path_2202" data-name="Path 2202" transform="translate(6553.543 1190.069)" fill="#324043">
      <path d="M 11.11848449707031 20.44234085083008 L 10.89054393768311 20.38032150268555 L 3.884564399719238 18.47420120239258 L 3.680234432220459 18.41861152648926 L 3.515974283218384 18.28497123718262 L -0.4475256502628326 15.06015110015869 L -0.7113356590270996 14.84550189971924 L -0.7895756363868713 14.51453113555908 L -2.055445671081543 9.160001754760742 L -2.102075576782227 8.962761878967285 L -2.068235635757446 8.762921333312988 L -0.8023656606674194 1.289721608161926 L -0.7385556697845459 0.9130215644836426 L -0.4398156702518463 0.6748315691947937 L 4.585944175720215 -3.332188367843628 L 4.7680344581604 -3.477368354797363 L 4.995524406433105 -3.527158498764038 L 10.93924427032471 -4.828188419342041 L 11.17787456512451 -4.880428314208984 L 11.41371440887451 -4.816758632659912 L 18.50270462036133 -2.902938365936279 L 18.71758460998535 -2.844928503036499 L 18.88757514953613 -2.701248407363892 L 22.90357398986816 0.6929815411567688 L 23.18228340148926 0.9285415410995483 L 23.24376487731934 1.288241505622864 L 24.4163646697998 8.148401260375977 L 24.44731521606445 8.329461097717285 L 24.41190528869629 8.509701728820801 L 23.23930358886719 14.47727108001709 L 23.17195510864258 14.82003116607666 L 22.90583419799805 15.04630184173584 L 18.44037437438965 18.84314155578613 L 18.24326515197754 19.0107421875 L 17.98960494995117 19.06170082092285 L 11.35007476806641 20.39580154418945 L 11.11848449707031 20.44234085083008 Z" stroke="none"/>
      <path d="M 11.15307426452637 -3.851318359375 L 5.209354400634766 -2.550289154052734 L 0.18359375 1.456731796264648 L -1.082275390625 8.929931640625 L 0.18359375 14.28446197509766 L 4.1470947265625 17.50928115844727 L 11.15307426452637 19.41540145874023 L 17.79260444641113 18.08130073547363 L 22.25806427001953 14.28446197509766 L 23.4306640625 8.316891670227051 L 22.25806427001953 1.456731796264648 L 18.2420654296875 -1.937498092651367 L 11.15307426452637 -3.851318359375 M 11.20267391204834 -5.909528732299805 L 11.67435455322266 -5.782188415527344 L 18.76334381103516 -3.868368148803711 L 19.1931037902832 -3.752347946166992 L 19.53307342529297 -3.465007781982422 L 23.54907417297363 -0.07077884674072266 L 24.10650444030762 0.4003419876098633 L 24.2294750213623 1.11976146697998 L 25.40207481384277 7.979921340942383 L 25.46396446228027 8.342031478881836 L 25.39313507080078 8.702511787414551 L 24.22053527832031 14.67008113861084 L 24.08583450317383 15.35559177398682 L 23.5535945892334 15.80814170837402 L 19.088134765625 19.60498046875 L 18.69391441345215 19.94017219543457 L 18.18659400939941 20.04211044311523 L 11.54706478118896 21.37621116638184 L 11.08388423919678 21.46928215026855 L 10.62802410125732 21.34525108337402 L 3.622043609619141 19.43913078308105 L 3.213375091552734 19.32794189453125 L 2.884855270385742 19.0606517791748 L -1.078645706176758 15.83583164215088 L -1.606266021728516 15.40655136108398 L -1.76275634765625 14.74460124969482 L -3.02862548828125 9.390071868896484 L -3.121885299682617 8.99558162689209 L -3.05418586730957 8.595911026000977 L -1.788314819335938 1.122711181640625 L -1.660696029663086 0.3693017959594727 L -1.063215255737305 -0.1070680618286133 L 3.962543487548828 -4.11408805847168 L 4.326713562011719 -4.404438018798828 L 4.781694412231445 -4.5040283203125 L 10.72541427612305 -5.805057525634766 L 11.20267391204834 -5.909528732299805 Z" stroke="none" fill="#2d2d2d"/>
    </g>
    <g id="Group_842" data-name="Group 842" transform="translate(6553.5 1186)">
      <g id="Path_2199" data-name="Path 2199" transform="translate(0 5.338)" fill="#825252">
        <path d="M 10.82632732391357 17.89608764648438 L 4.474850177764893 16.08842849731445 L 0.4381778836250305 12.92539978027344 L -1.280924916267395 6.690722942352295 L 0.305945873260498 0.8102720379829407 L 4.347958564758301 3.368530750274658 L 4.413008213043213 3.409700632095337 L 4.487428665161133 3.429400682449341 L 10.77557468414307 5.093694686889648 L 11.57468700408936 12.84139156341553 L 10.82632732391357 17.89608764648438 Z" stroke="none"/>
        <path d="M 0.6118936538696289 1.595643997192383 L -0.762660026550293 6.689310073852539 L 0.8763542175292969 12.63352680206299 L 4.706037044525146 15.63436412811279 L 10.4151668548584 17.25920867919922 L 11.07088565826416 12.83024215698242 L 10.31365966796875 5.488648414611816 L 4.359498500823975 3.912750244140625 L 4.210658550262451 3.873360633850098 L 4.080558300018311 3.791020393371582 L 0.6118936538696289 1.595643997192383 M -1.9073486328125e-06 0.02490043640136719 L 4.615358352661133 2.946041107177734 L 11.23748874664307 4.69873046875 L 12.07848834991455 12.85254096984863 L 11.23748874664307 18.53296089172363 L 4.243648529052734 16.54248046875 L -1.9073486328125e-06 13.21727085113525 L -1.799191474914551 6.692140579223633 L -1.9073486328125e-06 0.02490043640136719 Z" stroke="none" fill="#f9adad"/>
      </g>
      <g id="Path_2200" data-name="Path 2200" transform="translate(11.237 5.338)" fill="#a27575">
        <path d="M 0.4908719062805176 17.8903923034668 L 0.3092706203460693 5.184375286102295 L 6.82236385345459 3.343949556350708 L 6.891673564910889 3.324369430541992 L 6.952633857727051 3.286019563674927 L 10.9165620803833 0.7925688624382019 L 12.40119457244873 6.863799571990967 L 10.79674625396729 12.92824649810791 L 6.459403038024902 16.35486030578613 L 0.4908719062805176 17.8903923034668 Z" stroke="none"/>
        <path d="M 10.59563827514648 1.585132598876953 L 7.21885347366333 3.709249496459961 L 7.096933841705322 3.78593921661377 L 6.958333492279053 3.825109481811523 L 0.8147077560424805 5.56113338470459 L 0.9817399978637695 17.24782562255859 L 6.232436180114746 15.89697074890137 L 10.35599994659424 12.63924980163574 L 11.88527297973633 6.858943939208984 L 10.59563827514648 1.585132598876953 M 11.23748397827148 0 L 12.91711330413818 6.868649482727051 L 11.23748397827148 13.21726989746094 L 6.686403751373291 16.81274032592773 L 3.814697265625e-06 18.532958984375 L -0.1961660385131836 4.807619094848633 L 6.686403751373291 2.862789154052734 L 11.23748397827148 0 Z" stroke="none" fill="#f9adad"/>
      </g>
      <g id="Path_2201" data-name="Path 2201" transform="translate(15.304 -10.437)" fill="#a46f6f">
        <path d="M -4.07164192199707 20.5761890411377 L -11.29130172729492 18.90020751953125 L -14.53925037384033 15.81145668029785 L -9.88657283782959 12.1738395690918 L -4.081038951873779 10.95079517364502 L 2.728848934173584 12.80041599273682 L 6.379968166351318 15.7733907699585 L 2.520260810852051 18.89890480041504 L -4.07164192199707 20.5761890411377 Z" stroke="none"/>
        <path d="M -4.095844745635986 11.46488761901855 L -9.669983863830566 12.63918495178223 L -13.77478885650635 15.84845733642578 L -11.04550075531006 18.4439697265625 L -4.077056884765625 20.06162261962891 L 2.290756225585938 18.44136810302734 L 5.586777687072754 15.77231597900391 L 2.495409965515137 13.255126953125 L -4.095844745635986 11.46488761901855 M -4.066226959228516 10.43670082092285 L 2.962283134460449 12.34570121765137 L 7.173152923583984 15.77446174621582 L 2.749752998352051 19.35644149780273 L -4.066226959228516 21.09073257446289 L -11.53710746765137 19.35644149780273 L -15.30370712280273 15.77446174621582 L -10.10314750671387 11.70849227905273 L -4.066226959228516 10.43670082092285 Z" stroke="none" fill="#f9adad"/>
      </g>
      <path id="Path_4906" data-name="Path 4906" d="M.706,3.111,7.823-1.775l6.108-1.593" transform="translate(3.485 5.543)" fill="none" stroke="#f9adad" stroke-width="1"/>
      <path id="Path_4908" data-name="Path 4908" d="M2.7,3.944,6.582-.692l7.348-2.676" transform="translate(0.064 22.084) rotate(-60)" fill="none" stroke="#f9adad" stroke-width="1"/>
      <path id="Path_4911" data-name="Path 4911" d="M0,0,3.886,4.635l7.348,2.676" transform="translate(17.506 21.721) rotate(-120)" fill="none" stroke="#f9adad" stroke-width="1"/>
      <path id="Path_4907" data-name="Path 4907" d="M14.2,2.793,7.77-1.775,1.928-3.634" transform="translate(3.485 5.543)" fill="none" stroke="#f9adad" stroke-width="1"/>
      <path id="Path_4909" data-name="Path 4909" d="M13.9.893,5.28-.785,1.414-4.168" transform="translate(-2.73 16.543)" fill="none" stroke="#f9adad" stroke-width="1"/>
      <path id="Path_4910" data-name="Path 4910" d="M1.414.893,10.03-.785,13.9-4.168" transform="translate(9.754 16.543)" fill="none" stroke="#f9adad" stroke-width="1"/>
    </g>
  </g>
  <g id="select" transform="matrix(1, 0, 0, 1, -11594, 1168)">
    <rect id="Rectangle_678" data-name="Rectangle 678" width="33" height="33" transform="translate(11594 -1168)" fill="none"/>
  </g>
  <path style="fill: rgb(255, 138, 5); fill-rule: evenodd;" d="M 21.582 3.608 C 22.006 3.064 22.654 2.914 23.362 3.029 C 24.07 3.145 24.839 3.525 25.502 4.039 C 26.166 4.554 26.724 5.203 27.013 5.857 C 27.302 6.511 27.321 7.169 26.906 7.702 L 23.845 11.741 L 20.783 15.779 L 17.722 19.817 L 14.66 23.855 L 12.927 24.864 L 11.193 25.873 L 9.46 26.883 L 7.726 27.892 L 8.174 25.894 L 8.622 23.895 L 9.07 21.897 L 9.517 19.899 L 12.534 15.826 L 15.55 11.753 L 18.566 7.68 L 21.582 3.608"/>
  <rect x="19.908" y="0.083" width="7.138" height="4.297" style="fill: rgb(255, 0, 0);" transform="matrix(0.801131, 0.598489, -0.602115, 0.798422, 6.424079, -9.7276)" rx="1.043" ry="1.043"/>
  <path style="fill: rgb(255, 138, 5); fill-rule: evenodd;" d="M 20.018 5.771 L 22.657 7.767 L 25.295 9.763"/>
  <path d="M 15.952 12.051 L 20.095 6.456 L 22.355 8.166 L 24.625 9.883 L 20.385 15.477 L 14.322 23.473 L 10.941 25.441 L 8.465 26.883 L 9.11 24.004 L 9.982 20.112 L 15.952 12.051 M 21.984 3.906 L 21.983 3.905 C 22.265 3.46 22.671 3.423 23.282 3.523 C 23.917 3.626 24.571 3.95 25.196 4.434 C 25.82 4.918 26.296 5.471 26.556 6.059 C 26.806 6.626 26.87 7.028 26.508 7.4 L 25.229 9.086 L 22.959 7.368 L 20.69 5.652 L 21.984 3.906 M 21.187 3.301 L 21.582 3.608 L 21.18 3.31 L 15.148 11.455 L 9.052 19.686 L 8.134 23.786 L 6.987 28.901 L 11.445 26.305 L 14.998 24.237 L 21.181 16.081 L 27.304 8.004 C 27.772 7.31 27.797 6.395 27.47 5.655 C 27.152 4.934 26.511 4.189 25.808 3.644 C 25.106 3.099 24.223 2.663 23.442 2.536 C 22.641 2.405 21.752 2.666 21.187 3.301" style=""/>
  <path d="M 19.994 5.752 L 22.657 7.767 L 24.962 9.511 L 22.657 7.767 L 19.994 5.752 L 15.55 11.753 L 9.517 19.899 L 8.622 23.895 L 7.726 27.892 L 11.193 25.873 L 14.66 23.855 L 16.174 21.858 L 14.66 23.855 L 11.193 25.873 L 7.727 27.892 L 8.622 23.895 L 9.517 19.899 L 15.55 11.753 L 19.994 5.752 Z M 26.866 7.749 L 26.896 7.715 L 26.906 7.702 C 26.906 7.701 26.906 7.701 26.907 7.7 C 26.894 7.717 26.88 7.733 26.866 7.749 Z M 25.326 9.786 L 25.475 9.589 L 25.326 9.786 Z M 16.354 12.349 L 10.447 20.325 L 9.598 24.113 L 9.203 25.874 L 10.689 25.009 L 13.984 23.091 L 19.987 15.175 L 23.924 9.98 L 22.053 8.565 L 20.196 7.16 L 16.354 12.349 L 15.952 12.051 L 16.354 12.349 Z M 22.386 4.204 L 21.387 5.552 L 23.261 6.969 L 25.133 8.386 L 26.138 7.061 L 26.15 7.051 C 26.277 6.95 26.263 6.933 26.262 6.807 C 26.26 6.664 26.215 6.521 26.099 6.261 C 25.878 5.735 25.477 5.279 24.89 4.829 C 24.307 4.372 23.766 4.097 23.202 4.017 C 22.921 3.969 22.769 3.961 22.628 3.995 C 22.503 4.026 22.479 4.021 22.405 4.173 L 22.585 3.8 L 22.338 3.552 L 21.984 3.906 L 22.386 4.204 Z M 21.155 2.669 C 21.832 2.166 22.751 1.937 23.523 2.043 C 24.374 2.192 25.37 2.677 26.114 3.249 C 26.854 3.828 27.57 4.67 27.927 5.453 C 28.276 6.301 28.213 7.479 27.702 8.306 L 21.579 16.383 L 15.336 24.619 L 11.697 26.737 L 6.248 29.91 L 7.646 23.677 L 8.587 19.473 L 14.746 11.157 L 21.076 2.61 L 21.155 2.669 Z M 21.284 4.01 L 20.204 5.469 L 21.309 3.978 L 21.284 4.01 Z M 22.986 2.986 C 23.111 2.994 23.237 3.01 23.359 3.029 C 23.233 3.004 23.109 2.99 22.986 2.986 Z M 23.366 3.03 C 24.056 3.154 24.805 3.514 25.461 4.008 C 24.812 3.506 24.061 3.133 23.366 3.03 Z M 25.546 4.074 C 26.18 4.581 26.709 5.208 27.004 5.837 C 26.728 5.2 26.187 4.573 25.546 4.074 Z M 27.021 5.874 C 27.078 6.007 27.131 6.145 27.172 6.283 C 27.136 6.147 27.085 6.01 27.021 5.874 Z" style="fill: none;"/>
  <path style="fill: rgb(216, 216, 216); stroke: rgb(0, 0, 0);" d="M 9.627 19.909 C 9.19 20.374 14.29 24.189 14.743 23.69"/>
</svg>