<svg xmlns="http://www.w3.org/2000/svg" width="33" height="33" viewBox="0 0 33 33">
  <g id="Set_Static_1" data-name="Set Static 1" transform="translate(-11359.55 360.856)">
    <g id="Group_1190" data-name="Group 1190" transform="translate(4811.312 -1542.292)">
      <g id="Path_2202" data-name="Path 2202" transform="translate(6553.543 1190.069)" fill="#324043">
        <path d="M 11.15048122406006 20.51818084716797 L 10.72938060760498 20.32121086120605 L -0.2400990873575211 15.19027137756348 L -0.8164091110229492 14.92070198059082 L -0.8164091110229492 14.28446197509766 L -0.8164091110229492 1.456731557846069 L -0.8164091110229492 0.8297015428543091 L -0.2519890964031219 0.5565815567970276 L 10.71749114990234 -4.751468658447266 L 11.15041065216064 -4.960958480834961 L 11.58432102203369 -4.753548622131348 L 22.68932151794434 0.5545015335083008 L 23.25806999206543 0.826351523399353 L 23.25806999206543 1.456731557846069 L 23.25806999206543 14.28446197509766 L 23.25806999206543 14.92400169372559 L 22.6775016784668 15.19225120544434 L 11.57250118255615 20.32319068908691 L 11.15048122406006 20.51818084716797 Z" stroke="none"/>
        <path d="M 11.1530704498291 -3.851318359375 L 0.1835918426513672 1.456731796264648 L 0.1835918426513672 14.28446197509766 L 11.1530704498291 19.41540145874023 L 22.25806999206543 14.28446197509766 L 22.25806999206543 1.456731796264648 L 11.1530704498291 -3.851318359375 M 11.14775085449219 -6.070589065551758 L 12.01558113098145 -5.655778884887695 L 23.12058067321777 -0.3477287292480469 L 24.25807189941406 0.1959819793701172 L 24.25807189941406 1.456731796264648 L 24.25807189941406 14.28446197509766 L 24.25807189941406 15.56354141235352 L 23.0969409942627 16.10003089904785 L 11.99194049835205 21.23097229003906 L 11.1478910446167 21.62095260620117 L 10.30569076538086 21.22702217102051 L -0.6637897491455078 16.0960807800293 L -1.816408157348633 15.55694198608398 L -1.816408157348633 14.28446197509766 L -1.816408157348633 1.456731796264648 L -1.816408157348633 0.202672004699707 L -0.6875591278076172 -0.3435688018798828 L 10.28192138671875 -5.651618957519531 L 11.14775085449219 -6.070589065551758 Z" stroke="none" fill="#2d2d2d"/>
      </g>
      <g id="Group_842" data-name="Group 842" transform="translate(6553.5 1186)">
        <g id="Path_2199" data-name="Path 2199" transform="translate(0 5.338)" fill="#825252">
          <path d="M 10.73748302459717 17.74333000183105 L 0.500002920627594 12.90067100524902 L 0.500002920627594 0.7896298766136169 L 10.73748302459717 5.632287502288818 L 10.73748302459717 17.74333000183105 Z" stroke="none"/>
          <path d="M 1.000002861022949 1.579269409179688 L 1.000002861022949 12.58406257629395 L 10.23748302459717 16.95368957519531 L 10.23748302459717 5.948895454406738 L 1.000002861022949 1.579269409179688 M 2.86102294921875e-06 0 L 11.23748302459717 5.315689086914063 L 11.23748302459717 18.532958984375 L 2.86102294921875e-06 13.21726989746094 L 2.86102294921875e-06 0 Z" stroke="none" fill="#f9adad"/>
        </g>
        <g id="Path_2200" data-name="Path 2200" transform="translate(11.237 5.338)" fill="#a27575">
          <path d="M 0.500002920627594 17.74333000183105 L 0.500002920627594 5.632287502288818 L 10.73748302459717 0.7896298766136169 L 10.73748302459717 12.90067100524902 L 0.500002920627594 17.74333000183105 Z" stroke="none"/>
          <path d="M 10.23748302459717 1.579269409179688 L 1.000002861022949 5.948895454406738 L 1.000002861022949 16.95368957519531 L 10.23748302459717 12.58406257629395 L 10.23748302459717 1.579269409179688 M 11.23748302459717 0 L 11.23748302459717 13.21726989746094 L 2.86102294921875e-06 18.532958984375 L 2.86102294921875e-06 5.315689086914063 L 11.23748302459717 0 Z" stroke="none" fill="#f9adad"/>
        </g>
        <g id="Path_2201" data-name="Path 2201" transform="translate(15.304 -10.437)" fill="#a46f6f">
          <path d="M -4.066215038299561 20.53762245178223 L -14.13643741607666 15.7735538482666 L -4.06620454788208 10.99023151397705 L 6.005720615386963 15.77354907989502 L -4.066215038299561 20.53762245178223 Z" stroke="none"/>
          <path d="M -4.066192626953125 11.54376220703125 L -12.96916007995605 15.77263832092285 L -4.066192626953125 19.98448944091797 L 4.83828067779541 15.77263832092285 L -4.066192626953125 11.54376220703125 M -4.066226959228516 10.43670082092285 L 7.173152923583984 15.77446174621582 L -4.066226959228516 21.09073257446289 L -15.30370712280273 15.77446174621582 L -4.066226959228516 10.43670082092285 Z" stroke="none" fill="#f9adad"/>
        </g>
      </g>
    </g>
    <g id="select" transform="translate(-234.45 807.144)">
      <rect id="Rectangle_678" data-name="Rectangle 678" width="33" height="33" transform="translate(11594 -1168)" fill="none"/>
    </g>
  </g>
</svg>
