<svg xmlns="http://www.w3.org/2000/svg" width="33" height="33" viewBox="0 0 33 33">
  <g id="Clear" transform="translate(-11360.865 361.421)">
    <g id="Group_1190" data-name="Group 1190" transform="translate(4810.12 -1540)">
      <g id="Group_842" data-name="Group 842" transform="translate(6553.5 1186)">
        <g id="Path_2199" data-name="Path 2199" transform="translate(0 5.338)" fill="none">
          <path d="M0,0,11.237,5.316V18.533L0,13.217Z" stroke="none"/>
          <path d="M 1.000002861022949 1.579269409179688 L 1.000002861022949 12.58406257629395 L 10.23748302459717 16.95368957519531 L 10.23748302459717 5.948895454406738 L 1.000002861022949 1.579269409179688 M 2.86102294921875e-06 0 L 11.23748302459717 5.315689086914063 L 11.23748302459717 18.532958984375 L 2.86102294921875e-06 13.21726989746094 L 2.86102294921875e-06 0 Z" stroke="none" fill="#9f9f9f"/>
        </g>
        <g id="Path_2200" data-name="Path 2200" transform="translate(11.237 5.338)" fill="none">
          <path d="M11.237,0,0,5.316V18.533l11.237-5.316Z" stroke="none"/>
          <path d="M 10.23748302459717 1.579269409179688 L 1.000002861022949 5.948895454406738 L 1.000002861022949 16.95368957519531 L 10.23748302459717 12.58406257629395 L 10.23748302459717 1.579269409179688 M 11.23748302459717 0 L 11.23748302459717 13.21726989746094 L 2.86102294921875e-06 18.532958984375 L 2.86102294921875e-06 5.315689086914063 L 11.23748302459717 0 Z" stroke="none" fill="#9f9f9f"/>
        </g>
        <g id="Path_2201" data-name="Path 2201" transform="translate(15.302 -10.426)" fill="none">
          <path d="M-4.066,10.437-15.3,15.774l11.237,5.316L7.173,15.774Z" stroke="none"/>
          <path d="M -4.066192626953125 11.54376220703125 L -12.96916007995605 15.77263832092285 L -4.066192626953125 19.98448944091797 L 4.83828067779541 15.77263832092285 L -4.066192626953125 11.54376220703125 M -4.066226959228516 10.43670082092285 L 7.173152923583984 15.77446174621582 L -4.066226959228516 21.09073257446289 L -15.30370712280273 15.77446174621582 L -4.066226959228516 10.43670082092285 Z" stroke="none" fill="#9f9f9f"/>
        </g>
      </g>
    </g>
    <path id="Path_4900" data-name="Path 4900" d="M248.954,30.159l.1.118.05.135.033.133.017.152-.017.151L249.1,31l-.05.118-.1.118-1.041,1.057-.133.1-.118.066-.135.035-.151.017-.152-.017-.133-.035-.135-.066-.118-.1-2.265-2.3-2.266,2.3-.1.1-.135.066-.151.035-.152.017-.133-.017-.15-.035-.135-.066-.1-.1-1.059-1.057-.083-.118L240.042,31l-.05-.151-.017-.151.017-.152.05-.133.067-.135.083-.118,2.284-2.315-2.284-2.3-.083-.116-.067-.135-.05-.135-.017-.151.017-.151.05-.135.067-.118.083-.133,1.059-1.059.1-.1.135-.067.15-.033.133-.017.152.017.151.033.135.067.1.1,2.266,2.316,2.265-2.316.118-.1.135-.067.133-.033.152-.017.151.017.135.033.118.067.133.1,1.041,1.059.1.133.05.118.033.135.017.151-.017.151-.033.135-.05.135-.1.116-2.284,2.3Z" transform="translate(11144.439 -384.133)" fill="#db6868" fill-rule="evenodd"/>
    <g id="select" transform="translate(-233.135 806.579)">
      <rect id="Rectangle_678" data-name="Rectangle 678" width="33" height="33" transform="translate(11594 -1168)" fill="none"/>
    </g>
  </g>
</svg>
