<svg xmlns="http://www.w3.org/2000/svg" width="33" height="33" viewBox="0 0 33 33">
  <g id="physics_placement" transform="translate(-11453.3 460.5)">
    <g id="Group_3144" data-name="Group 3144" transform="translate(-1.69 -1.769)">
      <g id="Group_1186" data-name="Group 1186" transform="translate(11464.465 -442.274)">
        <g id="Group_3143" data-name="Group 3143" transform="translate(0.141 0.135)">
          <path id="Path_2202" data-name="Path 2202" d="M.184-.528,7.051-3.851,14-.528V7.5L7.051,10.714.184,7.5Z" transform="translate(-0.184 3.851)" fill="#324043"/>
        </g>
        <g id="Group_842" data-name="Group 842" transform="translate(0 0)">
          <path id="Path_2199" data-name="Path 2199" d="M0,0,7.036,3.328v8.278L0,8.275Z" transform="translate(0 3.342)" fill="#687477"/>
          <path id="Path_2200" data-name="Path 2200" d="M7.036,0,0,3.328v8.278L7.036,8.275Z" transform="translate(7.036 3.342)" fill="#84959a"/>
          <path id="Path_2201" data-name="Path 2201" d="M-8.269,10.437-15.3,13.778l7.031,3.331,7.037-3.328Z" transform="translate(15.305 -10.437)" fill="#97acb1"/>
        </g>
      </g>
      <g id="Group_1187" data-name="Group 1187" transform="translate(11457.5 -443.43)">
        <line id="Line_516" data-name="Line 516" x2="2.276" y2="2.276" transform="translate(0 6.828)" fill="none" stroke="#97acb1" stroke-linecap="round" stroke-width="1"/>
        <line id="Line_518" data-name="Line 518" x1="2.276" y2="2.276" transform="translate(2.276 6.828)" fill="none" stroke="#97acb1" stroke-linecap="round" stroke-width="1"/>
        <line id="Line_517" data-name="Line 517" y2="9.103" transform="translate(2.276)" fill="none" stroke="#97acb1" stroke-linecap="round" stroke-width="1"/>
      </g>
      <g id="Group_1188" data-name="Group 1188" transform="translate(11480.827 -443.43)">
        <line id="Line_516-2" data-name="Line 516" x2="2.276" y2="2.276" transform="translate(0 6.828)" fill="none" stroke="#97acb1" stroke-linecap="round" stroke-width="1"/>
        <line id="Line_518-2" data-name="Line 518" x1="2.276" y2="2.276" transform="translate(2.276 6.828)" fill="none" stroke="#97acb1" stroke-linecap="round" stroke-width="1"/>
        <line id="Line_517-2" data-name="Line 517" y2="9.103" transform="translate(2.276)" fill="none" stroke="#97acb1" stroke-linecap="round" stroke-width="1"/>
      </g>
      <g id="Group_1189" data-name="Group 1189" transform="translate(11468.082 -456.511)">
        <line id="Line_520" data-name="Line 520" y2="9.824" transform="translate(0 3.275)" fill="none" stroke="#97acb1" stroke-linecap="round" stroke-width="1"/>
        <line id="Line_519" data-name="Line 519" y2="9.824" transform="translate(6.828 3.275)" fill="none" stroke="#97acb1" stroke-linecap="round" stroke-width="1"/>
        <line id="Line_521" data-name="Line 521" y2="12.007" transform="translate(3.414 0)" fill="none" stroke="#97acb1" stroke-linecap="round" stroke-width="1"/>
      </g>
    </g>
    <g id="select" transform="translate(-140.7 707.5)">
      <rect id="Rectangle_678" data-name="Rectangle 678" width="33" height="33" transform="translate(11594 -1168)" fill="none"/>
    </g>
    <path id="Path_4921" data-name="Path 4921" d="M4.339,2.053l.038.046.028.047.018.046v.113l-.018.046L4.377,2.4l-.038.046L4.3,2.484l-.046.028-.056.01-.047.01H.281l-.056-.01-.046-.01L.131,2.484.094,2.446.057,2.4.028,2.352.01,2.306,0,2.249l.01-.056.018-.046L.057,2.1l.037-.046L2.025.094,2.062.056,2.109.028,2.165.01,2.222,0l.046.01.056.018.047.028.038.038,1.93,1.959Z" transform="translate(11486.148 -430.753) rotate(135)" fill="#c6c6c6" fill-rule="evenodd"/>
  </g>
</svg>
