<svg xmlns="http://www.w3.org/2000/svg" width="33.107" height="33" viewBox="0 0 33.107 33">
  <g id="Settings" transform="translate(-11359.316 360.856)">
    <path id="Path_2533" data-name="Path 2533" d="M4.339,2.053l.038.046.028.047.018.046v.113l-.018.046L4.377,2.4l-.038.046L4.3,2.484l-.046.028-.056.01-.047.01H.281l-.056-.01-.046-.01L.131,2.484.094,2.446.057,2.4.028,2.352.01,2.306,0,2.249l.01-.056.018-.046L.057,2.1l.037-.046L2.025.094,2.062.056,2.109.028,2.165.01,2.222,0l.046.01.056.018.047.028.038.038,1.93,1.959Z" transform="translate(11392.424 -330.984) rotate(135)" fill="#c6c6c6" fill-rule="evenodd"/>
    <g id="select" transform="translate(-234.683 807.144)">
      <rect id="Rectangle_678" data-name="Rectangle 678" width="33" height="33" transform="translate(11594 -1168)" fill="none"/>
    </g>
    <path id="Settings-2" data-name="Settings" d="M319.989,68.065v1.884l-.059.141-.085.144-.115.141-.112.115-.144.085-.171.029H300.483l-.174-.029-.141-.085-.144-.115-.085-.141-.085-.144-.056-.141V67.891l.056-.171.085-.115.085-.141.144-.115.141-.085.174-.056H319.3l.171.056.144.085.112.115.115.141.085.115.059.171Zm0-6.827V63.1l-.059.141-.085.144-.115.141-.112.115-.144.085-.171.029-.171.026H300.624l-.141-.026-.174-.029-.141-.085-.144-.115-.085-.141-.085-.144L299.8,63.1V61.067l.056-.171.085-.115.085-.144.144-.115.141-.085.174-.056.141-.029h18.509l.171.029.171.056.144.085.112.115.115.144.085.115.059.171Zm0-6.854v1.884l-.059.141-.085.144-.115.141-.112.115-.144.085-.171.029H300.483l-.174-.029-.141-.085-.144-.115-.085-.141-.085-.144-.056-.141V54.21l.056-.171.085-.115.085-.141.144-.115.141-.085.174-.056H319.3l.171.056.144.085.112.115.115.141.085.115.059.171Z" transform="translate(11066.058 -406.423)" fill="#9e9e9e" fill-rule="evenodd"/>
  </g>
</svg>
